<?xml version="1.0" encoding="UTF-8" standalone="no"?><svg xmlns="http://www.w3.org/2000/svg" xmlns:xlink="http://www.w3.org/1999/xlink" contentScriptType="application/ecmascript" contentStyleType="text/css" height="84px" preserveAspectRatio="none" style="width:261px;height:84px;" version="1.1" viewBox="0 0 261 84" width="261px" zoomAndPan="magnify"><defs><filter height="300%" id="fdubaqrc8ek93" width="300%" x="-1" y="-1"><feGaussianBlur result="blurOut" stdDeviation="2.0"/><feColorMatrix in="blurOut" result="blurOut2" type="matrix" values="0 0 0 0 0 0 0 0 0 0 0 0 0 0 0 0 0 0 .4 0"/><feOffset dx="4.0" dy="4.0" in="blurOut2" result="blurOut3"/><feBlend in="SourceGraphic" in2="blurOut3" mode="normal"/></filter></defs><g><!--class AIOpponent--><rect fill="#FEFECE" filter="url(#fdubaqrc8ek93)" height="65.6094" id="AIOpponent" style="stroke: #A80036; stroke-width: 1.5;" width="244" x="6" y="8"/><ellipse cx="87.25" cy="24" fill="#ADD1B2" rx="11" ry="11" style="stroke: #A80036; stroke-width: 1.0;"/><path d="M90.2188,29.6406 Q89.6406,29.9375 89,30.0859 Q88.3594,30.2344 87.6563,30.2344 Q85.1563,30.2344 83.8359,28.5859 Q82.5156,26.9375 82.5156,23.8125 Q82.5156,20.6875 83.8359,19.0313 Q85.1563,17.375 87.6563,17.375 Q88.3594,17.375 89.0078,17.5313 Q89.6563,17.6875 90.2188,17.9844 L90.2188,20.7031 Q89.5938,20.125 89,19.8516 Q88.4063,19.5781 87.7813,19.5781 Q86.4375,19.5781 85.75,20.6484 Q85.0625,21.7188 85.0625,23.8125 Q85.0625,25.9063 85.75,26.9766 Q86.4375,28.0469 87.7813,28.0469 Q88.4063,28.0469 89,27.7734 Q89.5938,27.5 90.2188,26.9219 L90.2188,29.6406 Z "/><text fill="#000000" font-family="sans-serif" font-size="12" lengthAdjust="spacingAndGlyphs" textLength="73" x="107.75" y="28.1543">AIOpponent</text><line style="stroke: #A80036; stroke-width: 1.5;" x1="7" x2="249" y1="40" y2="40"/><ellipse cx="17" cy="51.9023" fill="#84BE84" rx="3" ry="3" style="stroke: #038048; stroke-width: 1.0;"/><text fill="#000000" font-family="sans-serif" font-size="11" lengthAdjust="spacingAndGlyphs" textLength="141" x="26" y="54.2104">new(mistake_probability)</text><ellipse cx="17" cy="64.707" fill="#84BE84" rx="3" ry="3" style="stroke: #038048; stroke-width: 1.0;"/><text fill="#000000" font-family="sans-serif" font-size="11" lengthAdjust="spacingAndGlyphs" textLength="218" x="26" y="67.0151">get_move(Game) -&gt; Option&lt;Position&gt;</text><!--
@startuml
hide empty fields

class AIOpponent {
    +new(mistake_probability)
    +get_move(Game) -> Option<Position>
}

@enduml

PlantUML version 1.2019.01(Sat Feb 09 07:32:04 PST 2019)
(LGPL source distribution)
Java Runtime: OpenJDK Runtime Environment
JVM: OpenJDK 64-Bit Server VM
Java Version: 1.8.0_232-b09
Operating System: Linux
OS Version: 5.3.7-200.fc30.x86_64
Default Encoding: UTF-8
Language: en
Country: US
--></g></svg>