<?xml version="1.0" encoding="UTF-8" standalone="yes"?><svg xmlns="http://www.w3.org/2000/svg" xmlns:xlink="http://www.w3.org/1999/xlink" height="90px" style="width:419px;height:90px;" version="1.1" viewBox="0 0 419 90" width="419px"><defs><filter height="300%" id="f1" width="300%" x="-1" y="-1"><feGaussianBlur result="blurOut" stdDeviation="2.0"/><feColorMatrix in="blurOut" result="blurOut2" type="matrix" values="0 0 0 0 0 0 0 0 0 0 0 0 0 0 0 0 0 0 .4 0"/><feOffset dx="4.0" dy="4.0" in="blurOut2" result="blurOut3"/><feBlend in="SourceGraphic" in2="blurOut3" mode="normal"/></filter></defs><g><polygon fill="#FFFFFF" filter="url(#f1)" points="6,10.5,69,10.5,76,32.7969,83,32.7969,83,79.3906,6,79.3906,6,10.5" style="stroke: #000000; stroke-width: 2.0;"/><line style="stroke: #000000; stroke-width: 2.0;" x1="6" x2="76" y1="32.7969" y2="32.7969"/><text fill="#000000" font-family="sans-serif" font-size="14" font-weight="bold" lengthAdjust="spacingAndGlyphs" textLength="57" x="10" y="25.4951">Module</text><rect fill="#FEFECE" filter="url(#f1)" height="32" style="stroke: #A80036; stroke-width: 1.5;" width="60" x="118.5" y="29"/><ellipse cx="133.5" cy="45" fill="#B4A7E5" rx="11" ry="11" style="stroke: #A80036; stroke-width: 1.0;"/><path d="M129.4219,40.7656 L129.4219,38.6094 L136.8125,38.6094 L136.8125,40.7656 L134.3438,40.7656 L134.3438,48.8438 L136.8125,48.8438 L136.8125,51 L129.4219,51 L129.4219,48.8438 L131.8906,48.8438 L131.8906,40.7656 L129.4219,40.7656 Z "/><text fill="#000000" font-family="sans-serif" font-size="12" font-style="italic" lengthAdjust="spacingAndGlyphs" textLength="28" x="147.5" y="49.1543">Trait</text><rect fill="#FEFECE" filter="url(#f1)" height="73.6094" style="stroke: #A80036; stroke-width: 1.5;" width="77" x="214" y="8"/><ellipse cx="232.15" cy="24" fill="#ADD1B2" rx="11" ry="11" style="stroke: #A80036; stroke-width: 1.0;"/><path d="M235.1188,29.6406 Q234.5406,29.9375 233.9,30.0859 Q233.2594,30.2344 232.5563,30.2344 Q230.0563,30.2344 228.7359,28.5859 Q227.4156,26.9375 227.4156,23.8125 Q227.4156,20.6875 228.7359,19.0313 Q230.0563,17.375 232.5563,17.375 Q233.2594,17.375 233.9078,17.5313 Q234.5563,17.6875 235.1188,17.9844 L235.1188,20.7031 Q234.4938,20.125 233.9,19.8516 Q233.3063,19.5781 232.6813,19.5781 Q231.3375,19.5781 230.65,20.6484 Q229.9625,21.7188 229.9625,23.8125 Q229.9625,25.9063 230.65,26.9766 Q231.3375,28.0469 232.6813,28.0469 Q233.3063,28.0469 233.9,27.7734 Q234.4938,27.5 235.1188,26.9219 L235.1188,29.6406 Z "/><text fill="#000000" font-family="sans-serif" font-size="12" lengthAdjust="spacingAndGlyphs" textLength="38" x="246.85" y="28.1543">Struct</text><line style="stroke: #A80036; stroke-width: 1.5;" x1="215" x2="290" y1="40" y2="40"/><ellipse cx="225" cy="51.9023" fill="none" rx="3" ry="3" style="stroke: #038048; stroke-width: 1.0;"/><text fill="#000000" font-family="sans-serif" font-size="11" lengthAdjust="spacingAndGlyphs" textLength="24" x="234" y="54.2104">field</text><line style="stroke: #A80036; stroke-width: 1.5;" x1="215" x2="290" y1="60.8047" y2="60.8047"/><ellipse cx="225" cy="72.707" fill="#84BE84" rx="3" ry="3" style="stroke: #038048; stroke-width: 1.0;"/><text fill="#000000" font-family="sans-serif" font-size="11" lengthAdjust="spacingAndGlyphs" textLength="51" x="234" y="75.0151">method()</text><rect fill="#FEFECE" filter="url(#f1)" height="52.8047" style="stroke: #A80036; stroke-width: 1.5;" width="84" x="326.5" y="18.5"/><ellipse cx="349.15" cy="34.5" fill="#EB937F" rx="11" ry="11" style="stroke: #A80036; stroke-width: 1.0;"/><path d="M353.2594,40.5 L345.5406,40.5 L345.5406,28.1094 L353.2594,28.1094 L353.2594,30.2656 L347.9938,30.2656 L347.9938,32.9375 L352.7594,32.9375 L352.7594,35.0938 L347.9938,35.0938 L347.9938,38.3438 L353.2594,38.3438 L353.2594,40.5 Z "/><text fill="#000000" font-family="sans-serif" font-size="12" lengthAdjust="spacingAndGlyphs" textLength="35" x="364.85" y="38.6543">Enum</text><line style="stroke: #A80036; stroke-width: 1.5;" x1="327.5" x2="409.5" y1="50.5" y2="50.5"/><text fill="#000000" font-family="sans-serif" font-size="11" lengthAdjust="spacingAndGlyphs" textLength="72" x="332.5" y="64.7104">EnumVariant</text></g></svg>