<?xml version="1.0" encoding="UTF-8" standalone="yes"?><svg xmlns="http://www.w3.org/2000/svg" xmlns:xlink="http://www.w3.org/1999/xlink" height="203px" style="width:309px;height:203px;" version="1.1" viewBox="0 0 309 203" width="309px"><defs><filter height="300%" id="f1" width="300%" x="-1" y="-1"><feGaussianBlur result="blurOut" stdDeviation="2.0"/><feColorMatrix in="blurOut" result="blurOut2" type="matrix" values="0 0 0 0 0 0 0 0 0 0 0 0 0 0 0 0 0 0 .4 0"/><feOffset dx="4.0" dy="4.0" in="blurOut2" result="blurOut3"/><feBlend in="SourceGraphic" in2="blurOut3" mode="normal"/></filter></defs><g><polygon fill="#FFFFFF" filter="url(#f1)" points="225.5,10.5,288.5,10.5,295.5,32.7969,302.5,32.7969,302.5,79.3906,225.5,79.3906,225.5,10.5" style="stroke: #000000; stroke-width: 2.0;"/><line style="stroke: #000000; stroke-width: 2.0;" x1="225.5" x2="295.5" y1="32.7969" y2="32.7969"/><text fill="#000000" font-family="sans-serif" font-size="14" font-weight="bold" lengthAdjust="spacingAndGlyphs" textLength="57" x="229.5" y="25.4951">Module</text><rect fill="#FEFECE" filter="url(#f1)" height="32" style="stroke: #A80036; stroke-width: 1.5;" width="60" x="18" y="29"/><ellipse cx="33" cy="45" fill="#B4A7E5" rx="11" ry="11" style="stroke: #A80036; stroke-width: 1.0;"/><path d="M28.9219,40.7656 L28.9219,38.6094 L36.3125,38.6094 L36.3125,40.7656 L33.8438,40.7656 L33.8438,48.8438 L36.3125,48.8438 L36.3125,51 L28.9219,51 L28.9219,48.8438 L31.3906,48.8438 L31.3906,40.7656 L28.9219,40.7656 Z "/><text fill="#000000" font-family="sans-serif" font-size="12" font-style="italic" lengthAdjust="spacingAndGlyphs" textLength="28" x="47" y="49.1543">Trait</text><rect fill="#FEFECE" filter="url(#f1)" height="73.6094" style="stroke: #A80036; stroke-width: 1.5;" width="77" x="113.5" y="8"/><ellipse cx="131.65" cy="24" fill="#ADD1B2" rx="11" ry="11" style="stroke: #A80036; stroke-width: 1.0;"/><path d="M134.6188,29.6406 Q134.0406,29.9375 133.4,30.0859 Q132.7594,30.2344 132.0563,30.2344 Q129.5563,30.2344 128.2359,28.5859 Q126.9156,26.9375 126.9156,23.8125 Q126.9156,20.6875 128.2359,19.0313 Q129.5563,17.375 132.0563,17.375 Q132.7594,17.375 133.4078,17.5313 Q134.0563,17.6875 134.6188,17.9844 L134.6188,20.7031 Q133.9938,20.125 133.4,19.8516 Q132.8063,19.5781 132.1813,19.5781 Q130.8375,19.5781 130.15,20.6484 Q129.4625,21.7188 129.4625,23.8125 Q129.4625,25.9063 130.15,26.9766 Q130.8375,28.0469 132.1813,28.0469 Q132.8063,28.0469 133.4,27.7734 Q133.9938,27.5 134.6188,26.9219 L134.6188,29.6406 Z "/><text fill="#000000" font-family="sans-serif" font-size="12" lengthAdjust="spacingAndGlyphs" textLength="38" x="146.35" y="28.1543">Struct</text><line style="stroke: #A80036; stroke-width: 1.5;" x1="114.5" x2="189.5" y1="40" y2="40"/><ellipse cx="124.5" cy="51.9023" fill="none" rx="3" ry="3" style="stroke: #038048; stroke-width: 1.0;"/><text fill="#000000" font-family="sans-serif" font-size="11" lengthAdjust="spacingAndGlyphs" textLength="24" x="133.5" y="54.2104">field</text><line style="stroke: #A80036; stroke-width: 1.5;" x1="114.5" x2="189.5" y1="60.8047" y2="60.8047"/><ellipse cx="124.5" cy="72.707" fill="#84BE84" rx="3" ry="3" style="stroke: #038048; stroke-width: 1.0;"/><text fill="#000000" font-family="sans-serif" font-size="11" lengthAdjust="spacingAndGlyphs" textLength="51" x="133.5" y="75.0151">method()</text><rect fill="#FEFECE" filter="url(#f1)" height="52.8047" style="stroke: #A80036; stroke-width: 1.5;" width="84" x="6" y="142"/><ellipse cx="28.65" cy="158" fill="#EB937F" rx="11" ry="11" style="stroke: #A80036; stroke-width: 1.0;"/><path d="M32.7594,164 L25.0406,164 L25.0406,151.6094 L32.7594,151.6094 L32.7594,153.7656 L27.4938,153.7656 L27.4938,156.4375 L32.2594,156.4375 L32.2594,158.5938 L27.4938,158.5938 L27.4938,161.8438 L32.7594,161.8438 L32.7594,164 Z "/><text fill="#000000" font-family="sans-serif" font-size="12" lengthAdjust="spacingAndGlyphs" textLength="35" x="44.35" y="162.1543">Enum</text><line style="stroke: #A80036; stroke-width: 1.5;" x1="7" x2="89" y1="174" y2="174"/><text fill="#000000" font-family="sans-serif" font-size="11" lengthAdjust="spacingAndGlyphs" textLength="72" x="12" y="188.2104">EnumVariant</text></g></svg>