<?xml version="1.0" encoding="UTF-8" standalone="no"?><svg xmlns="http://www.w3.org/2000/svg" xmlns:xlink="http://www.w3.org/1999/xlink" contentScriptType="application/ecmascript" contentStyleType="text/css" height="279px" preserveAspectRatio="none" style="width:261px;height:279px;" version="1.1" viewBox="0 0 261 279" width="261px" zoomAndPan="magnify"><defs><filter height="300%" id="f1wz105cdcnh7i" width="300%" x="-1" y="-1"><feGaussianBlur result="blurOut" stdDeviation="2.0"/><feColorMatrix in="blurOut" result="blurOut2" type="matrix" values="0 0 0 0 0 0 0 0 0 0 0 0 0 0 0 0 0 0 .4 0"/><feOffset dx="4.0" dy="4.0" in="blurOut2" result="blurOut3"/><feBlend in="SourceGraphic" in2="blurOut3" mode="normal"/></filter></defs><g><!--cluster open_ttt_lib--><polygon fill="#FFFFFF" filter="url(#f1wz105cdcnh7i)" points="14,16,110,16,117,38.2969,239,38.2969,239,267,14,267,14,16" style="stroke: #000000; stroke-width: 1.5;"/><line style="stroke: #000000; stroke-width: 1.5;" x1="14" x2="117" y1="38.2969" y2="38.2969"/><text fill="#000000" font-family="sans-serif" font-size="14" font-weight="bold" lengthAdjust="spacingAndGlyphs" textLength="90" x="18" y="30.9951">open_ttt_lib</text><!--class Owner--><rect fill="#FEFECE" filter="url(#f1wz105cdcnh7i)" height="32" id="Owner" style="stroke: #A80036; stroke-width: 1.5;" width="71" x="32.5" y="227"/><ellipse cx="47.5" cy="243" fill="#EB937F" rx="11" ry="11" style="stroke: #A80036; stroke-width: 1.0;"/><path d="M51.6094,249 L43.8906,249 L43.8906,236.6094 L51.6094,236.6094 L51.6094,238.7656 L46.3438,238.7656 L46.3438,241.4375 L51.1094,241.4375 L51.1094,243.5938 L46.3438,243.5938 L46.3438,246.8438 L51.6094,246.8438 L51.6094,249 Z "/><text fill="#000000" font-family="sans-serif" font-size="12" lengthAdjust="spacingAndGlyphs" textLength="39" x="61.5" y="247.1543">Owner</text><!--class State--><rect fill="#FEFECE" filter="url(#f1wz105cdcnh7i)" height="32" id="State" style="stroke: #A80036; stroke-width: 1.5;" width="66" x="22" y="135"/><ellipse cx="37" cy="151" fill="#EB937F" rx="11" ry="11" style="stroke: #A80036; stroke-width: 1.0;"/><path d="M41.1094,157 L33.3906,157 L33.3906,144.6094 L41.1094,144.6094 L41.1094,146.7656 L35.8438,146.7656 L35.8438,149.4375 L40.6094,149.4375 L40.6094,151.5938 L35.8438,151.5938 L35.8438,154.8438 L41.1094,154.8438 L41.1094,157 Z "/><text fill="#000000" font-family="sans-serif" font-size="12" lengthAdjust="spacingAndGlyphs" textLength="34" x="51" y="155.1543">State</text><!--class Game--><rect fill="#FEFECE" filter="url(#f1wz105cdcnh7i)" height="32" id="Game" style="stroke: #A80036; stroke-width: 1.5;" width="68" x="22" y="43"/><ellipse cx="37" cy="59" fill="#ADD1B2" rx="11" ry="11" style="stroke: #A80036; stroke-width: 1.0;"/><path d="M39.9688,64.6406 Q39.3906,64.9375 38.75,65.0859 Q38.1094,65.2344 37.4063,65.2344 Q34.9063,65.2344 33.5859,63.5859 Q32.2656,61.9375 32.2656,58.8125 Q32.2656,55.6875 33.5859,54.0313 Q34.9063,52.375 37.4063,52.375 Q38.1094,52.375 38.7578,52.5313 Q39.4063,52.6875 39.9688,52.9844 L39.9688,55.7031 Q39.3438,55.125 38.75,54.8516 Q38.1563,54.5781 37.5313,54.5781 Q36.1875,54.5781 35.5,55.6484 Q34.8125,56.7188 34.8125,58.8125 Q34.8125,60.9063 35.5,61.9766 Q36.1875,63.0469 37.5313,63.0469 Q38.1563,63.0469 38.75,62.7734 Q39.3438,62.5 39.9688,61.9219 L39.9688,64.6406 Z "/><text fill="#000000" font-family="sans-serif" font-size="12" lengthAdjust="spacingAndGlyphs" textLength="36" x="51" y="63.1543">Game</text><!--class Board--><rect fill="#FEFECE" filter="url(#f1wz105cdcnh7i)" height="32" id="Board" style="stroke: #A80036; stroke-width: 1.5;" width="69" x="123.5" y="135"/><ellipse cx="138.5" cy="151" fill="#ADD1B2" rx="11" ry="11" style="stroke: #A80036; stroke-width: 1.0;"/><path d="M141.4688,156.6406 Q140.8906,156.9375 140.25,157.0859 Q139.6094,157.2344 138.9063,157.2344 Q136.4063,157.2344 135.0859,155.5859 Q133.7656,153.9375 133.7656,150.8125 Q133.7656,147.6875 135.0859,146.0313 Q136.4063,144.375 138.9063,144.375 Q139.6094,144.375 140.2578,144.5313 Q140.9063,144.6875 141.4688,144.9844 L141.4688,147.7031 Q140.8438,147.125 140.25,146.8516 Q139.6563,146.5781 139.0313,146.5781 Q137.6875,146.5781 137,147.6484 Q136.3125,148.7188 136.3125,150.8125 Q136.3125,152.9063 137,153.9766 Q137.6875,155.0469 139.0313,155.0469 Q139.6563,155.0469 140.25,154.7734 Q140.8438,154.5 141.4688,153.9219 L141.4688,156.6406 Z "/><text fill="#000000" font-family="sans-serif" font-size="12" lengthAdjust="spacingAndGlyphs" textLength="37" x="152.5" y="155.1543">Board</text><!--class Position--><rect fill="#FEFECE" filter="url(#f1wz105cdcnh7i)" height="32" id="Position" style="stroke: #A80036; stroke-width: 1.5;" width="82" x="139" y="227"/><ellipse cx="154" cy="243" fill="#ADD1B2" rx="11" ry="11" style="stroke: #A80036; stroke-width: 1.0;"/><path d="M156.9688,248.6406 Q156.3906,248.9375 155.75,249.0859 Q155.1094,249.2344 154.4063,249.2344 Q151.9063,249.2344 150.5859,247.5859 Q149.2656,245.9375 149.2656,242.8125 Q149.2656,239.6875 150.5859,238.0313 Q151.9063,236.375 154.4063,236.375 Q155.1094,236.375 155.7578,236.5313 Q156.4063,236.6875 156.9688,236.9844 L156.9688,239.7031 Q156.3438,239.125 155.75,238.8516 Q155.1563,238.5781 154.5313,238.5781 Q153.1875,238.5781 152.5,239.6484 Q151.8125,240.7188 151.8125,242.8125 Q151.8125,244.9063 152.5,245.9766 Q153.1875,247.0469 154.5313,247.0469 Q155.1563,247.0469 155.75,246.7734 Q156.3438,246.5 156.9688,245.9219 L156.9688,248.6406 Z "/><text fill="#000000" font-family="sans-serif" font-size="12" lengthAdjust="spacingAndGlyphs" textLength="50" x="168" y="247.1543">Position</text><!--class AIOpponent--><rect fill="#FEFECE" filter="url(#f1wz105cdcnh7i)" height="32" id="AIOpponent" style="stroke: #A80036; stroke-width: 1.5;" width="105" x="125.5" y="43"/><ellipse cx="140.5" cy="59" fill="#ADD1B2" rx="11" ry="11" style="stroke: #A80036; stroke-width: 1.0;"/><path d="M143.4688,64.6406 Q142.8906,64.9375 142.25,65.0859 Q141.6094,65.2344 140.9063,65.2344 Q138.4063,65.2344 137.0859,63.5859 Q135.7656,61.9375 135.7656,58.8125 Q135.7656,55.6875 137.0859,54.0313 Q138.4063,52.375 140.9063,52.375 Q141.6094,52.375 142.2578,52.5313 Q142.9063,52.6875 143.4688,52.9844 L143.4688,55.7031 Q142.8438,55.125 142.25,54.8516 Q141.6563,54.5781 141.0313,54.5781 Q139.6875,54.5781 139,55.6484 Q138.3125,56.7188 138.3125,58.8125 Q138.3125,60.9063 139,61.9766 Q139.6875,63.0469 141.0313,63.0469 Q141.6563,63.0469 142.25,62.7734 Q142.8438,62.5 143.4688,61.9219 L143.4688,64.6406 Z "/><text fill="#000000" font-family="sans-serif" font-size="12" lengthAdjust="spacingAndGlyphs" textLength="73" x="154.5" y="63.1543">AIOpponent</text><!--link Game to Board--><path d="M83.426,83.7372 C101.4161,99.9635 124.4237,120.7155 140.0943,134.8498 " fill="none" id="Game-Board" style="stroke: #A80036; stroke-width: 1.0;"/><polygon fill="#A80036" points="73.767,75.0252,75.5433,82.0141,82.6778,83.0624,80.9015,76.0735,73.767,75.0252" style="stroke: #A80036; stroke-width: 1.0;"/><!--link Game to State--><path d="M55.6833,88.1374 C55.5154,103.5796 55.3156,121.9646 55.1755,134.8498 " fill="none" id="Game-State" style="stroke: #A80036; stroke-width: 1.0;"/><polygon fill="#A80036" points="55.8258,75.0252,51.7608,80.9813,55.6953,87.0245,59.7603,81.0684,55.8258,75.0252" style="stroke: #A80036; stroke-width: 1.0;"/><!--link Board to Position--><path d="M164.9676,180.1374 C168.6604,195.5796 173.0567,213.9646 176.138,226.8498 " fill="none" id="Board-Position" style="stroke: #A80036; stroke-width: 1.0;"/><polygon fill="#A80036" points="161.8321,167.0252,159.3372,173.791,164.6229,178.6962,167.1178,171.9304,161.8321,167.0252" style="stroke: #A80036; stroke-width: 1.0;"/><text fill="#000000" font-family="sans-serif" font-size="13" lengthAdjust="spacingAndGlyphs" textLength="23" x="167.1025" y="187.2017">1..*</text><!--link Board to Owner--><path d="M133.1336,176.419 C117.3617,192.5414 97.4332,212.9127 83.7991,226.8498 " fill="none" id="Board-Owner" style="stroke: #A80036; stroke-width: 1.0;"/><polygon fill="#A80036" points="142.3232,167.0252,135.2681,168.517,133.9317,175.6032,140.9868,174.1114,142.3232,167.0252" style="stroke: #A80036; stroke-width: 1.0;"/><text fill="#000000" font-family="sans-serif" font-size="13" lengthAdjust="spacingAndGlyphs" textLength="23" x="109.9812" y="187.2017">1..*</text><!--link Game to AIOpponent--><path d="M95.4986,59 C105.4159,59 115.3332,59 125.2505,59 " fill="none" id="Game-AIOpponent" style="stroke: #A80036; stroke-width: 1.0; stroke-dasharray: 7.0,7.0;"/><polygon fill="#A80036" points="90.3125,59,99.3125,63,95.3125,59,99.3125,55,90.3125,59" style="stroke: #A80036; stroke-width: 1.0;"/><!--
@startuml
hide members

package open_ttt_lib {
    enum Owner
    enum State

    Game *- - Board
    Game *- - State

    Board "1..*" *- - Position
    Board "1..*" *- - Owner
    Game <. AIOpponent
}

@enduml

PlantUML version 1.2019.01(Sat Feb 09 07:32:04 PST 2019)
(LGPL source distribution)
Java Runtime: OpenJDK Runtime Environment
JVM: OpenJDK 64-Bit Server VM
Java Version: 1.8.0_232-b09
Operating System: Linux
OS Version: 5.3.7-200.fc30.x86_64
Default Encoding: UTF-8
Language: en
Country: US
--></g></svg>