<?xml version="1.0" encoding="UTF-8" standalone="yes"?><svg xmlns="http://www.w3.org/2000/svg" xmlns:xlink="http://www.w3.org/1999/xlink" height="82px" style="width:229px;height:82px;" version="1.1" viewBox="0 0 229 82" width="229px"><defs><filter height="300%" id="f1" width="300%" x="-1" y="-1"><feGaussianBlur result="blurOut" stdDeviation="2.0"/><feColorMatrix in="blurOut" result="blurOut2" type="matrix" values="0 0 0 0 0 0 0 0 0 0 0 0 0 0 0 0 0 0 .4 0"/><feOffset dx="4.0" dy="4.0" in="blurOut2" result="blurOut3"/><feBlend in="SourceGraphic" in2="blurOut3" mode="normal"/></filter></defs><g><rect fill="#FEFECE" filter="url(#f1)" height="65.6094" style="stroke: #A80036; stroke-width: 1.5;" width="214" x="6" y="8"/><ellipse cx="86.25" cy="24" fill="#ADD1B2" rx="11" ry="11" style="stroke: #A80036; stroke-width: 1.0;"/><path d="M89.2188,29.6406 Q88.6406,29.9375 88,30.0859 Q87.3594,30.2344 86.6563,30.2344 Q84.1563,30.2344 82.8359,28.5859 Q81.5156,26.9375 81.5156,23.8125 Q81.5156,20.6875 82.8359,19.0313 Q84.1563,17.375 86.6563,17.375 Q87.3594,17.375 88.0078,17.5313 Q88.6563,17.6875 89.2188,17.9844 L89.2188,20.7031 Q88.5938,20.125 88,19.8516 Q87.4063,19.5781 86.7813,19.5781 Q85.4375,19.5781 84.75,20.6484 Q84.0625,21.7188 84.0625,23.8125 Q84.0625,25.9063 84.75,26.9766 Q85.4375,28.0469 86.7813,28.0469 Q87.4063,28.0469 88,27.7734 Q88.5938,27.5 89.2188,26.9219 L89.2188,29.6406 Z "/><text fill="#000000" font-family="sans-serif" font-size="12" lengthAdjust="spacingAndGlyphs" textLength="45" x="106.75" y="28.1543">Square</text><line style="stroke: #A80036; stroke-width: 1.5;" x1="7" x2="219" y1="40" y2="40"/><ellipse cx="17" cy="51.9023" fill="#84BE84" rx="3" ry="3" style="stroke: #038048; stroke-width: 1.0;"/><text fill="#000000" font-family="sans-serif" font-size="11" lengthAdjust="spacingAndGlyphs" textLength="142" x="26" y="54.2104">owner() -&gt; SquareOwner</text><ellipse cx="17" cy="64.707" fill="#84BE84" rx="3" ry="3" style="stroke: #038048; stroke-width: 1.0;"/><text fill="#000000" font-family="sans-serif" font-size="11" lengthAdjust="spacingAndGlyphs" textLength="188" x="26" y="67.0151">set_owner(owner: SquareOwner)</text></g></svg>