<?xml version="1.0" encoding="UTF-8" standalone="no"?><svg xmlns="http://www.w3.org/2000/svg" xmlns:xlink="http://www.w3.org/1999/xlink" contentScriptType="application/ecmascript" contentStyleType="text/css" height="339px" preserveAspectRatio="none" style="width:278px;height:339px;" version="1.1" viewBox="0 0 278 339" width="278px" zoomAndPan="magnify"><defs><filter height="300%" id="f1iakl5d1w8lp4" width="300%" x="-1" y="-1"><feGaussianBlur result="blurOut" stdDeviation="2.0"/><feColorMatrix in="blurOut" result="blurOut2" type="matrix" values="0 0 0 0 0 0 0 0 0 0 0 0 0 0 0 0 0 0 .4 0"/><feOffset dx="4.0" dy="4.0" in="blurOut2" result="blurOut3"/><feBlend in="SourceGraphic" in2="blurOut3" mode="normal"/></filter></defs><g><ellipse cx="106.5" cy="18" fill="#000000" filter="url(#f1iakl5d1w8lp4)" rx="10" ry="10" style="stroke: none; stroke-width: 1.0;"/><rect fill="#FEFECE" filter="url(#f1iakl5d1w8lp4)" height="40" rx="12.5" ry="12.5" style="stroke: #A80036; stroke-width: 1.5;" width="97" x="109" y="88"/><text fill="#000000" font-family="sans-serif" font-size="14" lengthAdjust="spacingAndGlyphs" textLength="87" x="114" y="112.8467">PlayerXMove</text><rect fill="#FEFECE" filter="url(#f1iakl5d1w8lp4)" height="40" rx="12.5" ry="12.5" style="stroke: #A80036; stroke-width: 1.5;" width="99" x="6" y="188"/><text fill="#000000" font-family="sans-serif" font-size="14" lengthAdjust="spacingAndGlyphs" textLength="89" x="11" y="212.8467">PlayerOMove</text><rect fill="#FEFECE" filter="url(#f1iakl5d1w8lp4)" height="40" rx="12.5" ry="12.5" style="stroke: #A80036; stroke-width: 1.5;" width="85" x="140" y="188"/><text fill="#000000" font-family="sans-serif" font-size="14" lengthAdjust="spacingAndGlyphs" textLength="75" x="145" y="212.8467">PlayerXWin</text><rect fill="#FEFECE" filter="url(#f1iakl5d1w8lp4)" height="40" rx="12.5" ry="12.5" style="stroke: #A80036; stroke-width: 1.5;" width="82" x="185.5" y="288"/><text fill="#000000" font-family="sans-serif" font-size="14" lengthAdjust="spacingAndGlyphs" textLength="72" x="190.5" y="312.8467">CatsGame</text><rect fill="#FEFECE" filter="url(#f1iakl5d1w8lp4)" height="40" rx="12.5" ry="12.5" style="stroke: #A80036; stroke-width: 1.5;" width="87" x="12" y="288"/><text fill="#000000" font-family="sans-serif" font-size="14" lengthAdjust="spacingAndGlyphs" textLength="77" x="17" y="312.8467">PlayerOWin</text><!--link *start to PlayerXMove--><path d="M111.5765,26.9586 C118.9162,39.9109 132.7704,64.3595 143.3499,83.0293 " fill="none" id="*start-PlayerXMove" style="stroke: #A80036; stroke-width: 1.0;"/><polygon fill="#A80036" points="145.9632,87.6409,145.0063,77.8386,143.4982,83.2908,138.0461,81.7826,145.9632,87.6409" style="stroke: #A80036; stroke-width: 1.0;"/><!--link *start to PlayerOMove--><path d="M103.9008,27.6833 C96.2546,56.1691 73.6609,140.3418 62.2527,182.8429 " fill="none" id="*start-PlayerOMove" style="stroke: #A80036; stroke-width: 1.0;"/><polygon fill="#A80036" points="60.9187,187.8129,67.1153,180.1577,62.215,182.9839,59.3888,178.0836,60.9187,187.8129" style="stroke: #A80036; stroke-width: 1.0;"/><!--link PlayerXMove to PlayerOMove--><path d="M126.378,128.2365 C107.2731,144.2306 84.2263,166.6132 69.2589,183.5987 " fill="none" id="PlayerXMove-PlayerOMove" style="stroke: #A80036; stroke-width: 1.0;"/><polygon fill="#A80036" points="65.635,187.7936,74.5455,183.598,68.9036,184.01,68.4917,178.3681,65.635,187.7936" style="stroke: #A80036; stroke-width: 1.0;"/><!--link PlayerOMove to PlayerXMove--><path d="M87.2022,187.7936 C106.4665,171.8075 129.5288,149.4255 144.3679,132.4333 " fill="none" id="PlayerOMove-PlayerXMove" style="stroke: #A80036; stroke-width: 1.0;"/><polygon fill="#A80036" points="147.9561,128.2365,139.0672,132.4776,144.7068,132.0368,145.1476,137.6764,147.9561,128.2365" style="stroke: #A80036; stroke-width: 1.0;"/><!--link PlayerXMove to PlayerXWin--><path d="M162.5591,128.2365 C166.4899,143.9595 171.9641,165.8563 176.1826,182.7304 " fill="none" id="PlayerXMove-PlayerXWin" style="stroke: #A80036; stroke-width: 1.0;"/><polygon fill="#A80036" points="177.4484,187.7936,179.1458,178.0921,176.2356,182.9429,171.3847,180.0327,177.4484,187.7936" style="stroke: #A80036; stroke-width: 1.0;"/><!--link PlayerXMove to CatsGame--><path d="M189.6755,128.2054 C208.9454,142.3218 231.7294,163.0723 242.5,188 C255.786,218.7495 246.3281,257.7217 237.2958,282.7606 " fill="none" id="PlayerXMove-CatsGame" style="stroke: #A80036; stroke-width: 1.0;"/><polygon fill="#A80036" points="235.5018,287.576,242.3921,280.5387,237.2474,282.8906,234.8955,277.7458,235.5018,287.576" style="stroke: #A80036; stroke-width: 1.0;"/><!--link PlayerOMove to PlayerOWin--><path d="M55.5,228.2365 C55.5,243.9595 55.5,265.8563 55.5,282.7304 " fill="none" id="PlayerOMove-PlayerOWin" style="stroke: #A80036; stroke-width: 1.0;"/><polygon fill="#A80036" points="55.5,287.7936,59.5,278.7936,55.5,282.7936,51.5,278.7936,55.5,287.7936" style="stroke: #A80036; stroke-width: 1.0;"/><!--link PlayerOMove to CatsGame--><path d="M90.1044,228.2365 C118.3582,244.7592 158.2703,268.0996 187.6225,285.2646 " fill="none" id="PlayerOMove-CatsGame" style="stroke: #A80036; stroke-width: 1.0;"/><polygon fill="#A80036" points="192.2393,287.9645,186.4894,279.9683,187.9231,285.4405,182.451,286.8742,192.2393,287.9645" style="stroke: #A80036; stroke-width: 1.0;"/><!--
@startuml
hide empty description

[*] - -> PlayerXMove
[*] - -> PlayerOMove

PlayerXMove - -> PlayerOMove
PlayerXMove - -> PlayerXWin
PlayerXMove - -> CatsGame

PlayerOMove - -> PlayerXMove
PlayerOMove - -> PlayerOWin
PlayerOMove - -> CatsGame

@enduml

PlantUML version 1.2019.01(Sat Feb 09 07:32:04 PST 2019)
(LGPL source distribution)
Java Runtime: OpenJDK Runtime Environment
JVM: OpenJDK 64-Bit Server VM
Java Version: 1.8.0_232-b09
Operating System: Linux
OS Version: 5.3.7-200.fc30.x86_64
Default Encoding: UTF-8
Language: en
Country: US
--></g></svg>