<?xml version="1.0" encoding="UTF-8" standalone="yes"?><svg xmlns="http://www.w3.org/2000/svg" xmlns:xlink="http://www.w3.org/1999/xlink" height="206px" style="width:400px;height:206px;" version="1.1" viewBox="0 0 400 206" width="400px"><defs><filter height="300%" id="f1" width="300%" x="-1" y="-1"><feGaussianBlur result="blurOut" stdDeviation="2.0"/><feColorMatrix in="blurOut" result="blurOut2" type="matrix" values="0 0 0 0 0 0 0 0 0 0 0 0 0 0 0 0 0 0 .4 0"/><feOffset dx="4.0" dy="4.0" in="blurOut2" result="blurOut3"/><feBlend in="SourceGraphic" in2="blurOut3" mode="normal"/></filter></defs><g><polygon fill="#FFFFFF" filter="url(#f1)" points="22,24,111,24,118,46.2969,393,46.2969,393,199,22,199,22,24" style="stroke: #000000; stroke-width: 2.0;"/><line style="stroke: #000000; stroke-width: 2.0;" x1="22" x2="118" y1="46.2969" y2="46.2969"/><text fill="#000000" font-family="sans-serif" font-size="14" font-weight="bold" lengthAdjust="spacingAndGlyphs" textLength="83" x="26" y="38.9951">tic_tac_toe</text><rect fill="#FEFECE" filter="url(#f1)" height="32" style="stroke: #A80036; stroke-width: 1.5;" width="68" x="43" y="59"/><ellipse cx="58" cy="75" fill="#ADD1B2" rx="11" ry="11" style="stroke: #A80036; stroke-width: 1.0;"/><path d="M60.9688,80.6406 Q60.3906,80.9375 59.75,81.0859 Q59.1094,81.2344 58.4063,81.2344 Q55.9063,81.2344 54.5859,79.5859 Q53.2656,77.9375 53.2656,74.8125 Q53.2656,71.6875 54.5859,70.0313 Q55.9063,68.375 58.4063,68.375 Q59.1094,68.375 59.7578,68.5313 Q60.4063,68.6875 60.9688,68.9844 L60.9688,71.7031 Q60.3438,71.125 59.75,70.8516 Q59.1563,70.5781 58.5313,70.5781 Q57.1875,70.5781 56.5,71.6484 Q55.8125,72.7188 55.8125,74.8125 Q55.8125,76.9063 56.5,77.9766 Q57.1875,79.0469 58.5313,79.0469 Q59.1563,79.0469 59.75,78.7734 Q60.3438,78.5 60.9688,77.9219 L60.9688,80.6406 Z "/><text fill="#000000" font-family="sans-serif" font-size="12" lengthAdjust="spacingAndGlyphs" textLength="36" x="72" y="79.1543">Game</text><rect fill="#FEFECE" filter="url(#f1)" height="32" style="stroke: #A80036; stroke-width: 1.5;" width="102" x="146" y="59"/><ellipse cx="161" cy="75" fill="#EB937F" rx="11" ry="11" style="stroke: #A80036; stroke-width: 1.0;"/><path d="M165.1094,81 L157.3906,81 L157.3906,68.6094 L165.1094,68.6094 L165.1094,70.7656 L159.8438,70.7656 L159.8438,73.4375 L164.6094,73.4375 L164.6094,75.5938 L159.8438,75.5938 L159.8438,78.8438 L165.1094,78.8438 L165.1094,81 Z "/><text fill="#000000" font-family="sans-serif" font-size="12" lengthAdjust="spacingAndGlyphs" textLength="70" x="175" y="79.1543">GameState</text><rect fill="#FEFECE" filter="url(#f1)" height="32" style="stroke: #A80036; stroke-width: 1.5;" width="69" x="283.5" y="59"/><ellipse cx="298.5" cy="75" fill="#ADD1B2" rx="11" ry="11" style="stroke: #A80036; stroke-width: 1.0;"/><path d="M301.4688,80.6406 Q300.8906,80.9375 300.25,81.0859 Q299.6094,81.2344 298.9063,81.2344 Q296.4063,81.2344 295.0859,79.5859 Q293.7656,77.9375 293.7656,74.8125 Q293.7656,71.6875 295.0859,70.0313 Q296.4063,68.375 298.9063,68.375 Q299.6094,68.375 300.2578,68.5313 Q300.9063,68.6875 301.4688,68.9844 L301.4688,71.7031 Q300.8438,71.125 300.25,70.8516 Q299.6563,70.5781 299.0313,70.5781 Q297.6875,70.5781 297,71.6484 Q296.3125,72.7188 296.3125,74.8125 Q296.3125,76.9063 297,77.9766 Q297.6875,79.0469 299.0313,79.0469 Q299.6563,79.0469 300.25,78.7734 Q300.8438,78.5 301.4688,77.9219 L301.4688,80.6406 Z "/><text fill="#000000" font-family="sans-serif" font-size="12" lengthAdjust="spacingAndGlyphs" textLength="37" x="312.5" y="79.1543">Board</text><rect fill="#FEFECE" filter="url(#f1)" height="32" style="stroke: #A80036; stroke-width: 1.5;" width="77" x="38.5" y="151"/><ellipse cx="53.5" cy="167" fill="#ADD1B2" rx="11" ry="11" style="stroke: #A80036; stroke-width: 1.0;"/><path d="M56.4688,172.6406 Q55.8906,172.9375 55.25,173.0859 Q54.6094,173.2344 53.9063,173.2344 Q51.4063,173.2344 50.0859,171.5859 Q48.7656,169.9375 48.7656,166.8125 Q48.7656,163.6875 50.0859,162.0313 Q51.4063,160.375 53.9063,160.375 Q54.6094,160.375 55.2578,160.5313 Q55.9063,160.6875 56.4688,160.9844 L56.4688,163.7031 Q55.8438,163.125 55.25,162.8516 Q54.6563,162.5781 54.0313,162.5781 Q52.6875,162.5781 52,163.6484 Q51.3125,164.7188 51.3125,166.8125 Q51.3125,168.9063 52,169.9766 Q52.6875,171.0469 54.0313,171.0469 Q54.6563,171.0469 55.25,170.7734 Q55.8438,170.5 56.4688,169.9219 L56.4688,172.6406 Z "/><text fill="#000000" font-family="sans-serif" font-size="12" lengthAdjust="spacingAndGlyphs" textLength="45" x="67.5" y="171.1543">Square</text><rect fill="#FEFECE" filter="url(#f1)" height="32" style="stroke: #A80036; stroke-width: 1.5;" width="116" x="151" y="151"/><ellipse cx="166" cy="167" fill="#EB937F" rx="11" ry="11" style="stroke: #A80036; stroke-width: 1.0;"/><path d="M170.1094,173 L162.3906,173 L162.3906,160.6094 L170.1094,160.6094 L170.1094,162.7656 L164.8438,162.7656 L164.8438,165.4375 L169.6094,165.4375 L169.6094,167.5938 L164.8438,167.5938 L164.8438,170.8438 L170.1094,170.8438 L170.1094,173 Z "/><text fill="#000000" font-family="sans-serif" font-size="12" lengthAdjust="spacingAndGlyphs" textLength="84" x="180" y="171.1543">SquareOwner</text><rect fill="#FEFECE" filter="url(#f1)" height="32" style="stroke: #A80036; stroke-width: 1.5;" width="75" x="302.5" y="151"/><ellipse cx="317.5" cy="167" fill="#ADD1B2" rx="11" ry="11" style="stroke: #A80036; stroke-width: 1.0;"/><path d="M320.4688,172.6406 Q319.8906,172.9375 319.25,173.0859 Q318.6094,173.2344 317.9063,173.2344 Q315.4063,173.2344 314.0859,171.5859 Q312.7656,169.9375 312.7656,166.8125 Q312.7656,163.6875 314.0859,162.0313 Q315.4063,160.375 317.9063,160.375 Q318.6094,160.375 319.2578,160.5313 Q319.9063,160.6875 320.4688,160.9844 L320.4688,163.7031 Q319.8438,163.125 319.25,162.8516 Q318.6563,162.5781 318.0313,162.5781 Q316.6875,162.5781 316,163.6484 Q315.3125,164.7188 315.3125,166.8125 Q315.3125,168.9063 316,169.9766 Q316.6875,171.0469 318.0313,171.0469 Q318.6563,171.0469 319.25,170.7734 Q319.8438,170.5 320.4688,169.9219 L320.4688,172.6406 Z "/><text fill="#000000" font-family="sans-serif" font-size="12" lengthAdjust="spacingAndGlyphs" textLength="43" x="331.5" y="171.1543">AIMove</text></g></svg>