<?xml version="1.0" encoding="UTF-8" standalone="yes"?><svg xmlns="http://www.w3.org/2000/svg" xmlns:xlink="http://www.w3.org/1999/xlink" height="121px" style="width:227px;height:121px;" version="1.1" viewBox="0 0 227 121" width="227px"><defs><filter height="300%" id="f1" width="300%" x="-1" y="-1"><feGaussianBlur result="blurOut" stdDeviation="2.0"/><feColorMatrix in="blurOut" result="blurOut2" type="matrix" values="0 0 0 0 0 0 0 0 0 0 0 0 0 0 0 0 0 0 .4 0"/><feOffset dx="4.0" dy="4.0" in="blurOut2" result="blurOut3"/><feBlend in="SourceGraphic" in2="blurOut3" mode="normal"/></filter></defs><g><rect fill="#FEFECE" filter="url(#f1)" height="104.0234" style="stroke: #A80036; stroke-width: 1.5;" width="212" x="6" y="8"/><ellipse cx="89.25" cy="24" fill="#ADD1B2" rx="11" ry="11" style="stroke: #A80036; stroke-width: 1.0;"/><path d="M92.2188,29.6406 Q91.6406,29.9375 91,30.0859 Q90.3594,30.2344 89.6563,30.2344 Q87.1563,30.2344 85.8359,28.5859 Q84.5156,26.9375 84.5156,23.8125 Q84.5156,20.6875 85.8359,19.0313 Q87.1563,17.375 89.6563,17.375 Q90.3594,17.375 91.0078,17.5313 Q91.6563,17.6875 92.2188,17.9844 L92.2188,20.7031 Q91.5938,20.125 91,19.8516 Q90.4063,19.5781 89.7813,19.5781 Q88.4375,19.5781 87.75,20.6484 Q87.0625,21.7188 87.0625,23.8125 Q87.0625,25.9063 87.75,26.9766 Q88.4375,28.0469 89.7813,28.0469 Q90.4063,28.0469 91,27.7734 Q91.5938,27.5 92.2188,26.9219 L92.2188,29.6406 Z "/><text fill="#000000" font-family="sans-serif" font-size="12" lengthAdjust="spacingAndGlyphs" textLength="37" x="109.75" y="28.1543">Board</text><line style="stroke: #A80036; stroke-width: 1.5;" x1="7" x2="217" y1="40" y2="40"/><ellipse cx="17" cy="51.9023" fill="#84BE84" rx="3" ry="3" style="stroke: #038048; stroke-width: 1.0;"/><text fill="#000000" font-family="sans-serif" font-size="11" lengthAdjust="spacingAndGlyphs" textLength="177" x="26" y="54.2104">new(num_rows, num_columns)</text><ellipse cx="17" cy="64.707" fill="#84BE84" rx="3" ry="3" style="stroke: #038048; stroke-width: 1.0;"/><text fill="#000000" font-family="sans-serif" font-size="11" lengthAdjust="spacingAndGlyphs" textLength="158" x="26" y="67.0151">get(row, column) -&gt; Square</text><ellipse cx="17" cy="77.5117" fill="#84BE84" rx="3" ry="3" style="stroke: #038048; stroke-width: 1.0;"/><text fill="#000000" font-family="sans-serif" font-size="11" lengthAdjust="spacingAndGlyphs" textLength="186" x="26" y="79.8198">get_mut(row, column) -&gt; Square</text><ellipse cx="17" cy="90.3164" fill="#84BE84" rx="3" ry="3" style="stroke: #038048; stroke-width: 1.0;"/><text fill="#000000" font-family="sans-serif" font-size="11" lengthAdjust="spacingAndGlyphs" textLength="105" x="26" y="92.6245">num_rows() -&gt; i32</text><ellipse cx="17" cy="103.1211" fill="#84BE84" rx="3" ry="3" style="stroke: #038048; stroke-width: 1.0;"/><text fill="#000000" font-family="sans-serif" font-size="11" lengthAdjust="spacingAndGlyphs" textLength="125" x="26" y="105.4292">num_columns() -&gt; i32</text></g></svg>