<?xml version="1.0" encoding="UTF-8" standalone="no"?><svg xmlns="http://www.w3.org/2000/svg" xmlns:xlink="http://www.w3.org/1999/xlink" contentScriptType="application/ecmascript" contentStyleType="text/css" height="151px" preserveAspectRatio="none" style="width:356px;height:151px;" version="1.1" viewBox="0 0 356 151" width="356px" zoomAndPan="magnify"><defs><filter height="300%" id="f314zfqr6sj2p" width="300%" x="-1" y="-1"><feGaussianBlur result="blurOut" stdDeviation="2.0"/><feColorMatrix in="blurOut" result="blurOut2" type="matrix" values="0 0 0 0 0 0 0 0 0 0 0 0 0 0 0 0 0 0 .4 0"/><feOffset dx="4.0" dy="4.0" in="blurOut2" result="blurOut3"/><feBlend in="SourceGraphic" in2="blurOut3" mode="normal"/></filter></defs><g><!--entity TTT GUI--><rect fill="#FEFECE" filter="url(#f314zfqr6sj2p)" height="36.2969" style="stroke: #A80036; stroke-width: 1.5;" width="75" x="6" y="8"/><rect fill="#FEFECE" height="5" style="stroke: #A80036; stroke-width: 1.5;" width="10" x="1" y="13"/><rect fill="#FEFECE" height="5" style="stroke: #A80036; stroke-width: 1.5;" width="10" x="1" y="34.2969"/><text fill="#000000" font-family="sans-serif" font-size="14" lengthAdjust="spacingAndGlyphs" textLength="55" x="16" y="30.9951">TTT GUI</text><!--entity open_ttt_lib--><rect fill="#FEFECE" filter="url(#f314zfqr6sj2p)" height="36.2969" style="stroke: #A80036; stroke-width: 1.5;" width="100" x="101.5" y="104"/><rect fill="#FEFECE" height="5" style="stroke: #A80036; stroke-width: 1.5;" width="10" x="96.5" y="109"/><rect fill="#FEFECE" height="5" style="stroke: #A80036; stroke-width: 1.5;" width="10" x="96.5" y="130.2969"/><text fill="#000000" font-family="sans-serif" font-size="14" lengthAdjust="spacingAndGlyphs" textLength="80" x="111.5" y="126.9951">open_ttt_lib</text><!--entity TTT CLI--><rect fill="#FEFECE" filter="url(#f314zfqr6sj2p)" height="36.2969" style="stroke: #A80036; stroke-width: 1.5;" width="71" x="116" y="8"/><rect fill="#FEFECE" height="5" style="stroke: #A80036; stroke-width: 1.5;" width="10" x="111" y="13"/><rect fill="#FEFECE" height="5" style="stroke: #A80036; stroke-width: 1.5;" width="10" x="111" y="34.2969"/><text fill="#000000" font-family="sans-serif" font-size="14" lengthAdjust="spacingAndGlyphs" textLength="51" x="126" y="30.9951">TTT CLI</text><!--entity TTT Mini Game--><rect fill="#FEFECE" filter="url(#f314zfqr6sj2p)" height="36.2969" style="stroke: #A80036; stroke-width: 1.5;" width="123" x="222" y="8"/><rect fill="#FEFECE" height="5" style="stroke: #A80036; stroke-width: 1.5;" width="10" x="217" y="13"/><rect fill="#FEFECE" height="5" style="stroke: #A80036; stroke-width: 1.5;" width="10" x="217" y="34.2969"/><text fill="#000000" font-family="sans-serif" font-size="14" lengthAdjust="spacingAndGlyphs" textLength="103" x="232" y="30.9951">TTT Mini Game</text><!--link TTT GUI to open_ttt_lib--><path d="M63.814,44.0569 C81.6514,59.9124 107.6536,83.0255 126.7116,99.9658 " fill="none" id="TTT GUI-open_ttt_lib" style="stroke: #A80036; stroke-width: 1.0;"/><polygon fill="#A80036" points="130.9099,103.6977,126.8408,94.7287,127.1729,100.3758,121.5258,100.708,130.9099,103.6977" style="stroke: #A80036; stroke-width: 1.0;"/><!--link TTT CLI to open_ttt_lib--><path d="M151.5,44.0569 C151.5,59.5126 151.5,81.8647 151.5,98.6731 " fill="none" id="TTT CLI-open_ttt_lib" style="stroke: #A80036; stroke-width: 1.0;"/><polygon fill="#A80036" points="151.5,103.6977,155.5,94.6977,151.5,98.6977,147.5,94.6977,151.5,103.6977" style="stroke: #A80036; stroke-width: 1.0;"/><!--link TTT Mini Game to open_ttt_lib--><path d="M258.6718,44.0569 C236.5957,60.1122 204.2872,83.6093 180.9202,100.6035 " fill="none" id="TTT Mini Game-open_ttt_lib" style="stroke: #A80036; stroke-width: 1.0;"/><polygon fill="#A80036" points="176.6657,103.6977,186.297,101.6389,180.7093,100.7568,181.5915,95.1691,176.6657,103.6977" style="stroke: #A80036; stroke-width: 1.0;"/><!--
@startuml
[TTT GUI] - -> [open_ttt_lib]
[TTT CLI] - -> [open_ttt_lib]
[TTT Mini Game] - -> [open_ttt_lib]

@enduml

PlantUML version 1.2019.01(Sat Feb 09 07:32:04 PST 2019)
(LGPL source distribution)
Java Runtime: OpenJDK Runtime Environment
JVM: OpenJDK 64-Bit Server VM
Java Version: 1.8.0_232-b09
Operating System: Linux
OS Version: 5.3.7-200.fc30.x86_64
Default Encoding: UTF-8
Language: en
Country: US
--></g></svg>