<?xml version="1.0" encoding="UTF-8" standalone="yes"?><svg xmlns="http://www.w3.org/2000/svg" xmlns:xlink="http://www.w3.org/1999/xlink" height="141px" style="width:389px;height:141px;" version="1.1" viewBox="0 0 389 141" width="389px"><defs><filter height="300%" id="f1" width="300%" x="-1" y="-1"><feGaussianBlur result="blurOut" stdDeviation="2.0"/><feColorMatrix in="blurOut" result="blurOut2" type="matrix" values="0 0 0 0 0 0 0 0 0 0 0 0 0 0 0 0 0 0 .4 0"/><feOffset dx="4.0" dy="4.0" in="blurOut2" result="blurOut3"/><feBlend in="SourceGraphic" in2="blurOut3" mode="normal"/></filter></defs><g><rect fill="#FEFECE" filter="url(#f1)" height="116.8281" style="stroke: #A80036; stroke-width: 1.5;" width="181" x="6" y="12"/><ellipse cx="74.25" cy="28" fill="#ADD1B2" rx="11" ry="11" style="stroke: #A80036; stroke-width: 1.0;"/><path d="M77.2188,33.6406 Q76.6406,33.9375 76,34.0859 Q75.3594,34.2344 74.6563,34.2344 Q72.1563,34.2344 70.8359,32.5859 Q69.5156,30.9375 69.5156,27.8125 Q69.5156,24.6875 70.8359,23.0313 Q72.1563,21.375 74.6563,21.375 Q75.3594,21.375 76.0078,21.5313 Q76.6563,21.6875 77.2188,21.9844 L77.2188,24.7031 Q76.5938,24.125 76,23.8516 Q75.4063,23.5781 74.7813,23.5781 Q73.4375,23.5781 72.75,24.6484 Q72.0625,25.7188 72.0625,27.8125 Q72.0625,29.9063 72.75,30.9766 Q73.4375,32.0469 74.7813,32.0469 Q75.4063,32.0469 76,31.7734 Q76.5938,31.5 77.2188,30.9219 L77.2188,33.6406 Z "/><text fill="#000000" font-family="sans-serif" font-size="12" lengthAdjust="spacingAndGlyphs" textLength="36" x="94.75" y="32.1543">Game</text><line style="stroke: #A80036; stroke-width: 1.5;" x1="7" x2="186" y1="44" y2="44"/><ellipse cx="17" cy="55.9023" fill="#84BE84" rx="3" ry="3" style="stroke: #038048; stroke-width: 1.0;"/><text fill="#000000" font-family="sans-serif" font-size="11" lengthAdjust="spacingAndGlyphs" textLength="31" x="26" y="58.2104">new()</text><ellipse cx="17" cy="68.707" fill="#84BE84" rx="3" ry="3" style="stroke: #038048; stroke-width: 1.0;"/><text fill="#000000" font-family="sans-serif" font-size="11" lengthAdjust="spacingAndGlyphs" textLength="96" x="26" y="71.0151">board() -&gt; Board</text><ellipse cx="17" cy="81.5117" fill="#84BE84" rx="3" ry="3" style="stroke: #038048; stroke-width: 1.0;"/><text fill="#000000" font-family="sans-serif" font-size="11" lengthAdjust="spacingAndGlyphs" textLength="122" x="26" y="83.8198">state() -&gt; GameState</text><ellipse cx="17" cy="94.3164" fill="#84BE84" rx="3" ry="3" style="stroke: #038048; stroke-width: 1.0;"/><text fill="#000000" font-family="sans-serif" font-size="11" lengthAdjust="spacingAndGlyphs" textLength="155" x="26" y="96.6245">can_move(position) -&gt; bool</text><ellipse cx="17" cy="107.1211" fill="#84BE84" rx="3" ry="3" style="stroke: #038048; stroke-width: 1.0;"/><text fill="#000000" font-family="sans-serif" font-size="11" lengthAdjust="spacingAndGlyphs" textLength="104" x="26" y="109.4292">do_move(position)</text><ellipse cx="17" cy="119.9258" fill="#84BE84" rx="3" ry="3" style="stroke: #038048; stroke-width: 1.0;"/><text fill="#000000" font-family="sans-serif" font-size="11" lengthAdjust="spacingAndGlyphs" textLength="103" x="26" y="122.2339">start_next_game()</text><rect fill="#FEFECE" filter="url(#f1)" height="124.8281" style="stroke: #A80036; stroke-width: 1.5;" width="158" x="222.5" y="8"/><ellipse cx="262.7" cy="24" fill="#EB937F" rx="11" ry="11" style="stroke: #A80036; stroke-width: 1.0;"/><path d="M266.8094,30 L259.0906,30 L259.0906,17.6094 L266.8094,17.6094 L266.8094,19.7656 L261.5438,19.7656 L261.5438,22.4375 L266.3094,22.4375 L266.3094,24.5938 L261.5438,24.5938 L261.5438,27.8438 L266.8094,27.8438 L266.8094,30 Z "/><text fill="#000000" font-family="sans-serif" font-size="12" lengthAdjust="spacingAndGlyphs" textLength="70" x="282.3" y="28.1543">GameState</text><line style="stroke: #A80036; stroke-width: 1.5;" x1="223.5" x2="379.5" y1="40" y2="40"/><text fill="#000000" font-family="sans-serif" font-size="11" lengthAdjust="spacingAndGlyphs" textLength="71" x="228.5" y="54.2104">PlayerXMove</text><text fill="#000000" font-family="sans-serif" font-size="11" lengthAdjust="spacingAndGlyphs" textLength="73" x="228.5" y="67.0151">PlayerOMove</text><text fill="#000000" font-family="sans-serif" font-size="11" lengthAdjust="spacingAndGlyphs" textLength="61" x="228.5" y="79.8198">PlayerXWin</text><text fill="#000000" font-family="sans-serif" font-size="11" lengthAdjust="spacingAndGlyphs" textLength="63" x="228.5" y="92.6245">PlayerOWin</text><text fill="#000000" font-family="sans-serif" font-size="11" lengthAdjust="spacingAndGlyphs" textLength="60" x="228.5" y="105.4292">CatsGame</text><line style="stroke: #A80036; stroke-width: 1.5;" x1="223.5" x2="379.5" y1="112.0234" y2="112.0234"/><ellipse cx="233.5" cy="123.9258" fill="#84BE84" rx="3" ry="3" style="stroke: #038048; stroke-width: 1.0;"/><text fill="#000000" font-family="sans-serif" font-size="11" lengthAdjust="spacingAndGlyphs" textLength="132" x="242.5" y="126.2339">is_game_over() -&gt; bool</text></g></svg>