<?xml version="1.0" encoding="UTF-8" standalone="yes"?><svg xmlns="http://www.w3.org/2000/svg" xmlns:xlink="http://www.w3.org/1999/xlink" height="337px" style="width:276px;height:337px;" version="1.1" viewBox="0 0 276 337" width="276px"><defs><filter height="300%" id="f1" width="300%" x="-1" y="-1"><feGaussianBlur result="blurOut" stdDeviation="2.0"/><feColorMatrix in="blurOut" result="blurOut2" type="matrix" values="0 0 0 0 0 0 0 0 0 0 0 0 0 0 0 0 0 0 .4 0"/><feOffset dx="4.0" dy="4.0" in="blurOut2" result="blurOut3"/><feBlend in="SourceGraphic" in2="blurOut3" mode="normal"/></filter></defs><g><ellipse cx="106.5" cy="18" fill="#000000" filter="url(#f1)" rx="10" ry="10" style="stroke: none; stroke-width: 1.0;"/><rect fill="#FEFECE" filter="url(#f1)" height="40" rx="12.5" ry="12.5" style="stroke: #A80036; stroke-width: 1.5;" width="97" x="109" y="88"/><text fill="#000000" font-family="sans-serif" font-size="14" lengthAdjust="spacingAndGlyphs" textLength="87" x="114" y="112.8467">PlayerXMove</text><rect fill="#FEFECE" filter="url(#f1)" height="40" rx="12.5" ry="12.5" style="stroke: #A80036; stroke-width: 1.5;" width="99" x="6" y="188"/><text fill="#000000" font-family="sans-serif" font-size="14" lengthAdjust="spacingAndGlyphs" textLength="89" x="11" y="212.8467">PlayerOMove</text><rect fill="#FEFECE" filter="url(#f1)" height="40" rx="12.5" ry="12.5" style="stroke: #A80036; stroke-width: 1.5;" width="85" x="140" y="188"/><text fill="#000000" font-family="sans-serif" font-size="14" lengthAdjust="spacingAndGlyphs" textLength="75" x="145" y="212.8467">PlayerXWin</text><rect fill="#FEFECE" filter="url(#f1)" height="40" rx="12.5" ry="12.5" style="stroke: #A80036; stroke-width: 1.5;" width="82" x="185.5" y="288"/><text fill="#000000" font-family="sans-serif" font-size="14" lengthAdjust="spacingAndGlyphs" textLength="72" x="190.5" y="312.8467">CatsGame</text><rect fill="#FEFECE" filter="url(#f1)" height="40" rx="12.5" ry="12.5" style="stroke: #A80036; stroke-width: 1.5;" width="87" x="12" y="288"/><text fill="#000000" font-family="sans-serif" font-size="14" lengthAdjust="spacingAndGlyphs" textLength="77" x="17" y="312.8467">PlayerOWin</text><path d="M111.207,27.121 C118.526,39.752 132.92,64.587 143.724,83.229 " fill="none" style="stroke: #A80036; stroke-width: 1.0;"/><polygon fill="#A80036" points="146.387,87.824,145.3361,78.0314,143.8804,83.4977,138.414,82.042,146.387,87.824" style="stroke: #A80036; stroke-width: 1.0;"/><path d="M104.1086,27.815 C96.6336,55.37 73.5266,140.549 62.0734,182.769 " fill="none" style="stroke: #A80036; stroke-width: 1.0;"/><polygon fill="#A80036" points="60.7362,187.698,66.9523,180.0586,62.0448,182.8723,59.2311,177.9648,60.7362,187.698" style="stroke: #A80036; stroke-width: 1.0;"/><path d="M127.238,128.128 C107.721,144.047 83.8447,166.767 68.6756,183.737 " fill="none" style="stroke: #A80036; stroke-width: 1.0;"/><polygon fill="#A80036" points="65.0145,187.92,73.9518,183.7818,68.3074,184.1575,67.9318,178.5131,65.0145,187.92" style="stroke: #A80036; stroke-width: 1.0;"/><path d="M86.6097,187.679 C106.154,171.851 129.768,149.396 144.742,132.524 " fill="none" style="stroke: #A80036; stroke-width: 1.0;"/><polygon fill="#A80036" points="148.356,128.362,139.4349,132.535,145.0778,132.1373,145.4754,137.7802,148.356,128.362" style="stroke: #A80036; stroke-width: 1.0;"/><path d="M162.439,128.362 C166.411,143.932 172.015,165.897 176.29,182.657 " fill="none" style="stroke: #A80036; stroke-width: 1.0;"/><polygon fill="#A80036" points="177.571,187.679,179.223,177.9697,176.3355,182.8341,171.4711,179.9465,177.571,187.679" style="stroke: #A80036; stroke-width: 1.0;"/><path d="M188.805,128.245 C208.249,142.156 231.554,162.883 242.5,188 C255.929,218.815 246.093,258.0235 236.972,282.8261 " fill="none" style="stroke: #A80036; stroke-width: 1.0;"/><polygon fill="#A80036" points="235.164,287.5878,242.0979,280.5935,236.9386,282.9133,234.6188,277.754,235.164,287.5878" style="stroke: #A80036; stroke-width: 1.0;"/><path d="M55.5,228.3616 C55.5,243.9317 55.5,265.897 55.5,282.6571 " fill="none" style="stroke: #A80036; stroke-width: 1.0;"/><polygon fill="#A80036" points="55.5,287.6786,59.5,278.6786,55.5,282.6786,51.5,278.6786,55.5,287.6786" style="stroke: #A80036; stroke-width: 1.0;"/><path d="M88.8765,228.128 C117.477,244.519 158.661,268.1213 188.517,285.2319 " fill="none" style="stroke: #A80036; stroke-width: 1.0;"/><polygon fill="#A80036" points="193.208,287.9202,187.3898,279.9736,188.8704,285.4333,183.4107,286.9138,193.208,287.9202" style="stroke: #A80036; stroke-width: 1.0;"/></g></svg>