<?xml version="1.0" encoding="UTF-8" standalone="yes"?><svg xmlns="http://www.w3.org/2000/svg" xmlns:xlink="http://www.w3.org/1999/xlink" height="398px" style="width:569px;height:398px;" version="1.1" viewBox="0 0 569 398" width="569px"><defs><filter height="300%" id="f1" width="300%" x="-1" y="-1"><feGaussianBlur result="blurOut" stdDeviation="2.0"/><feColorMatrix in="blurOut" result="blurOut2" type="matrix" values="0 0 0 0 0 0 0 0 0 0 0 0 0 0 0 0 0 0 .4 0"/><feOffset dx="4.0" dy="4.0" in="blurOut2" result="blurOut3"/><feBlend in="SourceGraphic" in2="blurOut3" mode="normal"/></filter></defs><g><rect fill="#FEFECE" filter="url(#f1)" height="129.6328" style="stroke: #A80036; stroke-width: 1.5;" width="204" x="6" y="8"/><ellipse cx="85.25" cy="24" fill="#ADD1B2" rx="11" ry="11" style="stroke: #A80036; stroke-width: 1.0;"/><path d="M88.2188,29.6406 Q87.6406,29.9375 87,30.0859 Q86.3594,30.2344 85.6563,30.2344 Q83.1563,30.2344 81.8359,28.5859 Q80.5156,26.9375 80.5156,23.8125 Q80.5156,20.6875 81.8359,19.0313 Q83.1563,17.375 85.6563,17.375 Q86.3594,17.375 87.0078,17.5313 Q87.6563,17.6875 88.2188,17.9844 L88.2188,20.7031 Q87.5938,20.125 87,19.8516 Q86.4063,19.5781 85.7813,19.5781 Q84.4375,19.5781 83.75,20.6484 Q83.0625,21.7188 83.0625,23.8125 Q83.0625,25.9063 83.75,26.9766 Q84.4375,28.0469 85.7813,28.0469 Q86.4063,28.0469 87,27.7734 Q87.5938,27.5 88.2188,26.9219 L88.2188,29.6406 Z "/><text fill="#000000" font-family="sans-serif" font-size="12" lengthAdjust="spacingAndGlyphs" textLength="37" x="105.75" y="28.1543">Board</text><line style="stroke: #A80036; stroke-width: 1.5;" x1="7" x2="209" y1="40" y2="40"/><ellipse cx="17" cy="51.9023" fill="#84BE84" rx="3" ry="3" style="stroke: #038048; stroke-width: 1.0;"/><text fill="#000000" font-family="sans-serif" font-size="11" lengthAdjust="spacingAndGlyphs" textLength="31" x="26" y="54.2104">new()</text><ellipse cx="17" cy="64.707" fill="#84BE84" rx="3" ry="3" style="stroke: #038048; stroke-width: 1.0;"/><text fill="#000000" font-family="sans-serif" font-size="11" lengthAdjust="spacingAndGlyphs" textLength="68" x="26" y="67.0151">size() -&gt; i32</text><ellipse cx="17" cy="77.5117" fill="#84BE84" rx="3" ry="3" style="stroke: #038048; stroke-width: 1.0;"/><text fill="#000000" font-family="sans-serif" font-size="11" lengthAdjust="spacingAndGlyphs" textLength="133" x="26" y="79.8198">get(position) -&gt; Square</text><ellipse cx="17" cy="90.3164" fill="#84BE84" rx="3" ry="3" style="stroke: #038048; stroke-width: 1.0;"/><text fill="#000000" font-family="sans-serif" font-size="11" lengthAdjust="spacingAndGlyphs" textLength="161" x="26" y="92.6245">get_mut(position) -&gt; Square</text><ellipse cx="17" cy="103.1211" fill="#84BE84" rx="3" ry="3" style="stroke: #038048; stroke-width: 1.0;"/><text fill="#000000" font-family="sans-serif" font-size="11" lengthAdjust="spacingAndGlyphs" textLength="67" x="26" y="105.4292">iter() -&gt; Iter</text><ellipse cx="17" cy="115.9258" fill="#84BE84" rx="3" ry="3" style="stroke: #038048; stroke-width: 1.0;"/><text fill="#000000" font-family="sans-serif" font-size="11" lengthAdjust="spacingAndGlyphs" textLength="178" x="26" y="118.2339">free_squares() -&gt; FreeSquares</text><ellipse cx="17" cy="128.7305" fill="#84BE84" rx="3" ry="3" style="stroke: #038048; stroke-width: 1.0;"/><text fill="#000000" font-family="sans-serif" font-size="11" lengthAdjust="spacingAndGlyphs" textLength="161" x="26" y="131.0386">victory_sets() -&gt; VictorySets</text><rect fill="#FEFECE" filter="url(#f1)" height="73.6094" style="stroke: #A80036; stroke-width: 1.5;" width="159" x="245.5" y="36"/><ellipse cx="270.85" cy="52" fill="#B4A7E5" rx="11" ry="11" style="stroke: #A80036; stroke-width: 1.0;"/><path d="M266.7719,47.7656 L266.7719,45.6094 L274.1625,45.6094 L274.1625,47.7656 L271.6938,47.7656 L271.6938,55.8438 L274.1625,55.8438 L274.1625,58 L266.7719,58 L266.7719,55.8438 L269.2406,55.8438 L269.2406,47.7656 L266.7719,47.7656 Z "/><text fill="#000000" font-family="sans-serif" font-size="12" font-style="italic" lengthAdjust="spacingAndGlyphs" textLength="104" x="287.15" y="56.1543">std::iter::Iterator</text><line style="stroke: #A80036; stroke-width: 1.5;" x1="246.5" x2="403.5" y1="68" y2="68"/><ellipse cx="256.5" cy="79.9023" fill="none" rx="3" ry="3" style="stroke: #038048; stroke-width: 1.0;"/><text fill="#000000" font-family="sans-serif" font-size="11" lengthAdjust="spacingAndGlyphs" textLength="57" x="265.5" y="82.2104">Item: type</text><line style="stroke: #A80036; stroke-width: 1.5;" x1="246.5" x2="403.5" y1="88.8047" y2="88.8047"/><ellipse cx="256.5" cy="100.707" fill="#84BE84" rx="3" ry="3" style="stroke: #038048; stroke-width: 1.0;"/><text fill="#000000" font-family="sans-serif" font-size="11" lengthAdjust="spacingAndGlyphs" textLength="133" x="265.5" y="103.0151">next() -&gt; Option&lt;Item&gt;</text><rect fill="#FEFECE" filter="url(#f1)" height="52.8047" style="stroke: #A80036; stroke-width: 1.5;" width="100" x="134" y="198"/><ellipse cx="170.15" cy="214" fill="#ADD1B2" rx="11" ry="11" style="stroke: #A80036; stroke-width: 1.0;"/><path d="M173.1188,219.6406 Q172.5406,219.9375 171.9,220.0859 Q171.2594,220.2344 170.5563,220.2344 Q168.0563,220.2344 166.7359,218.5859 Q165.4156,216.9375 165.4156,213.8125 Q165.4156,210.6875 166.7359,209.0313 Q168.0563,207.375 170.5563,207.375 Q171.2594,207.375 171.9078,207.5313 Q172.5563,207.6875 173.1188,207.9844 L173.1188,210.7031 Q172.4938,210.125 171.9,209.8516 Q171.3063,209.5781 170.6813,209.5781 Q169.3375,209.5781 168.65,210.6484 Q167.9625,211.7188 167.9625,213.8125 Q167.9625,215.9063 168.65,216.9766 Q169.3375,218.0469 170.6813,218.0469 Q171.3063,218.0469 171.9,217.7734 Q172.4938,217.5 173.1188,216.9219 L173.1188,219.6406 Z "/><text fill="#000000" font-family="sans-serif" font-size="12" lengthAdjust="spacingAndGlyphs" textLength="21" x="188.85" y="218.1543">Iter</text><line style="stroke: #A80036; stroke-width: 1.5;" x1="135" x2="233" y1="230" y2="230"/><ellipse cx="145" cy="241.9023" fill="none" rx="3" ry="3" style="stroke: #038048; stroke-width: 1.0;"/><text fill="#000000" font-family="sans-serif" font-size="11" lengthAdjust="spacingAndGlyphs" textLength="74" x="154" y="244.2104">Item: Square</text><rect fill="#FEFECE" filter="url(#f1)" height="52.8047" style="stroke: #A80036; stroke-width: 1.5;" width="112" x="269" y="198"/><ellipse cx="284" cy="214" fill="#ADD1B2" rx="11" ry="11" style="stroke: #A80036; stroke-width: 1.0;"/><path d="M286.9688,219.6406 Q286.3906,219.9375 285.75,220.0859 Q285.1094,220.2344 284.4063,220.2344 Q281.9063,220.2344 280.5859,218.5859 Q279.2656,216.9375 279.2656,213.8125 Q279.2656,210.6875 280.5859,209.0313 Q281.9063,207.375 284.4063,207.375 Q285.1094,207.375 285.7578,207.5313 Q286.4063,207.6875 286.9688,207.9844 L286.9688,210.7031 Q286.3438,210.125 285.75,209.8516 Q285.1563,209.5781 284.5313,209.5781 Q283.1875,209.5781 282.5,210.6484 Q281.8125,211.7188 281.8125,213.8125 Q281.8125,215.9063 282.5,216.9766 Q283.1875,218.0469 284.5313,218.0469 Q285.1563,218.0469 285.75,217.7734 Q286.3438,217.5 286.9688,216.9219 L286.9688,219.6406 Z "/><text fill="#000000" font-family="sans-serif" font-size="12" lengthAdjust="spacingAndGlyphs" textLength="80" x="298" y="218.1543">FreeSquares</text><line style="stroke: #A80036; stroke-width: 1.5;" x1="270" x2="380" y1="230" y2="230"/><ellipse cx="280" cy="241.9023" fill="none" rx="3" ry="3" style="stroke: #038048; stroke-width: 1.0;"/><text fill="#000000" font-family="sans-serif" font-size="11" lengthAdjust="spacingAndGlyphs" textLength="74" x="289" y="244.2104">Item: Square</text><rect fill="#FEFECE" filter="url(#f1)" height="52.8047" style="stroke: #A80036; stroke-width: 1.5;" width="144" x="416" y="198"/><ellipse cx="449.9" cy="214" fill="#ADD1B2" rx="11" ry="11" style="stroke: #A80036; stroke-width: 1.0;"/><path d="M452.8688,219.6406 Q452.2906,219.9375 451.65,220.0859 Q451.0094,220.2344 450.3063,220.2344 Q447.8063,220.2344 446.4859,218.5859 Q445.1656,216.9375 445.1656,213.8125 Q445.1656,210.6875 446.4859,209.0313 Q447.8063,207.375 450.3063,207.375 Q451.0094,207.375 451.6578,207.5313 Q452.3063,207.6875 452.8688,207.9844 L452.8688,210.7031 Q452.2438,210.125 451.65,209.8516 Q451.0563,209.5781 450.4313,209.5781 Q449.0875,209.5781 448.4,210.6484 Q447.7125,211.7188 447.7125,213.8125 Q447.7125,215.9063 448.4,216.9766 Q449.0875,218.0469 450.4313,218.0469 Q451.0563,218.0469 451.65,217.7734 Q452.2438,217.5 452.8688,216.9219 L452.8688,219.6406 Z "/><text fill="#000000" font-family="sans-serif" font-size="12" lengthAdjust="spacingAndGlyphs" textLength="70" x="468.1" y="218.1543">VictorySets</text><line style="stroke: #A80036; stroke-width: 1.5;" x1="417" x2="559" y1="230" y2="230"/><ellipse cx="427" cy="241.9023" fill="none" rx="3" ry="3" style="stroke: #038048; stroke-width: 1.0;"/><text fill="#000000" font-family="sans-serif" font-size="11" lengthAdjust="spacingAndGlyphs" textLength="118" x="436" y="244.2104">Item: slice&lt;Square&gt;</text><rect fill="#FEFECE" filter="url(#f1)" height="65.6094" style="stroke: #A80036; stroke-width: 1.5;" width="124" x="166" y="317"/><ellipse cx="202.15" cy="333" fill="#ADD1B2" rx="11" ry="11" style="stroke: #A80036; stroke-width: 1.0;"/><path d="M205.1188,338.6406 Q204.5406,338.9375 203.9,339.0859 Q203.2594,339.2344 202.5563,339.2344 Q200.0563,339.2344 198.7359,337.5859 Q197.4156,335.9375 197.4156,332.8125 Q197.4156,329.6875 198.7359,328.0313 Q200.0563,326.375 202.5563,326.375 Q203.2594,326.375 203.9078,326.5313 Q204.5563,326.6875 205.1188,326.9844 L205.1188,329.7031 Q204.4938,329.125 203.9,328.8516 Q203.3063,328.5781 202.6813,328.5781 Q201.3375,328.5781 200.65,329.6484 Q199.9625,330.7188 199.9625,332.8125 Q199.9625,334.9063 200.65,335.9766 Q201.3375,337.0469 202.6813,337.0469 Q203.3063,337.0469 203.9,336.7734 Q204.4938,336.5 205.1188,335.9219 L205.1188,338.6406 Z "/><text fill="#000000" font-family="sans-serif" font-size="12" lengthAdjust="spacingAndGlyphs" textLength="45" x="220.85" y="337.1543">Square</text><line style="stroke: #A80036; stroke-width: 1.5;" x1="167" x2="289" y1="349" y2="349"/><ellipse cx="177" cy="360.9023" fill="none" rx="3" ry="3" style="stroke: #038048; stroke-width: 1.0;"/><text fill="#000000" font-family="sans-serif" font-size="11" lengthAdjust="spacingAndGlyphs" textLength="98" x="186" y="363.2104">position: Position</text><ellipse cx="177" cy="373.707" fill="none" rx="3" ry="3" style="stroke: #038048; stroke-width: 1.0;"/><text fill="#000000" font-family="sans-serif" font-size="11" lengthAdjust="spacingAndGlyphs" textLength="80" x="186" y="376.0151">owner: Owner</text><rect fill="#FEFECE" filter="url(#f1)" height="65.6094" style="stroke: #A80036; stroke-width: 1.5;" width="92" x="325" y="317"/><ellipse cx="344.5" cy="333" fill="#ADD1B2" rx="11" ry="11" style="stroke: #A80036; stroke-width: 1.0;"/><path d="M347.4688,338.6406 Q346.8906,338.9375 346.25,339.0859 Q345.6094,339.2344 344.9063,339.2344 Q342.4063,339.2344 341.0859,337.5859 Q339.7656,335.9375 339.7656,332.8125 Q339.7656,329.6875 341.0859,328.0313 Q342.4063,326.375 344.9063,326.375 Q345.6094,326.375 346.2578,326.5313 Q346.9063,326.6875 347.4688,326.9844 L347.4688,329.7031 Q346.8438,329.125 346.25,328.8516 Q345.6563,328.5781 345.0313,328.5781 Q343.6875,328.5781 343,329.6484 Q342.3125,330.7188 342.3125,332.8125 Q342.3125,334.9063 343,335.9766 Q343.6875,337.0469 345.0313,337.0469 Q345.6563,337.0469 346.25,336.7734 Q346.8438,336.5 347.4688,335.9219 L347.4688,338.6406 Z "/><text fill="#000000" font-family="sans-serif" font-size="12" lengthAdjust="spacingAndGlyphs" textLength="50" x="359.5" y="337.1543">Position</text><line style="stroke: #A80036; stroke-width: 1.5;" x1="326" x2="416" y1="349" y2="349"/><ellipse cx="336" cy="360.9023" fill="none" rx="3" ry="3" style="stroke: #038048; stroke-width: 1.0;"/><text fill="#000000" font-family="sans-serif" font-size="11" lengthAdjust="spacingAndGlyphs" textLength="46" x="345" y="363.2104">row: i32</text><ellipse cx="336" cy="373.707" fill="none" rx="3" ry="3" style="stroke: #038048; stroke-width: 1.0;"/><text fill="#000000" font-family="sans-serif" font-size="11" lengthAdjust="spacingAndGlyphs" textLength="66" x="345" y="376.0151">column: i32</text><rect fill="#FEFECE" filter="url(#f1)" height="78.4141" style="stroke: #A80036; stroke-width: 1.5;" width="71" x="452.5" y="311"/><ellipse cx="467.5" cy="327" fill="#EB937F" rx="11" ry="11" style="stroke: #A80036; stroke-width: 1.0;"/><path d="M471.6094,333 L463.8906,333 L463.8906,320.6094 L471.6094,320.6094 L471.6094,322.7656 L466.3438,322.7656 L466.3438,325.4375 L471.1094,325.4375 L471.1094,327.5938 L466.3438,327.5938 L466.3438,330.8438 L471.6094,330.8438 L471.6094,333 Z "/><text fill="#000000" font-family="sans-serif" font-size="12" lengthAdjust="spacingAndGlyphs" textLength="39" x="481.5" y="331.1543">Owner</text><line style="stroke: #A80036; stroke-width: 1.5;" x1="453.5" x2="522.5" y1="343" y2="343"/><text fill="#000000" font-family="sans-serif" font-size="11" lengthAdjust="spacingAndGlyphs" textLength="42" x="458.5" y="357.2104">PlayerX</text><text fill="#000000" font-family="sans-serif" font-size="11" lengthAdjust="spacingAndGlyphs" textLength="44" x="458.5" y="370.0151">PlayerO</text><text fill="#000000" font-family="sans-serif" font-size="11" lengthAdjust="spacingAndGlyphs" textLength="29" x="458.5" y="382.8198">None</text><path d="M276.995,124.898 C253.796,149.497 226.965,177.945 208.104,197.943 " fill="none" style="stroke: #A80036; stroke-width: 1.0;"/><polygon fill="none" points="272.053,119.937,290.868,110.19,282.238,129.542,272.053,119.937" style="stroke: #A80036; stroke-width: 1.0;"/><path d="M325,130.528 C325,153.743 325,179.454 325,197.943 " fill="none" style="stroke: #A80036; stroke-width: 1.0;"/><polygon fill="none" points="318,130.19,325,110.19,332,130.19,318,130.19" style="stroke: #A80036; stroke-width: 1.0;"/><path d="M379.359,123.856 C406.435,148.69 438.023,177.662 460.136,197.943 " fill="none" style="stroke: #A80036; stroke-width: 1.0;"/><polygon fill="none" points="374.466,128.867,364.458,110.19,383.929,118.55,374.466,128.867" style="stroke: #A80036; stroke-width: 1.0;"/></g></svg>