<?xml version="1.0" encoding="UTF-8" standalone="yes"?><svg xmlns="http://www.w3.org/2000/svg" xmlns:xlink="http://www.w3.org/1999/xlink" height="298px" style="width:376px;height:298px;" version="1.1" viewBox="0 0 376 298" width="376px"><defs><filter height="300%" id="f1" width="300%" x="-1" y="-1"><feGaussianBlur result="blurOut" stdDeviation="2.0"/><feColorMatrix in="blurOut" result="blurOut2" type="matrix" values="0 0 0 0 0 0 0 0 0 0 0 0 0 0 0 0 0 0 .4 0"/><feOffset dx="4.0" dy="4.0" in="blurOut2" result="blurOut3"/><feBlend in="SourceGraphic" in2="blurOut3" mode="normal"/></filter></defs><g><polygon fill="#FFFFFF" filter="url(#f1)" points="22,24,111,24,118,46.2969,369,46.2969,369,291,22,291,22,24" style="stroke: #000000; stroke-width: 2.0;"/><line style="stroke: #000000; stroke-width: 2.0;" x1="22" x2="118" y1="46.2969" y2="46.2969"/><text fill="#000000" font-family="sans-serif" font-size="14" font-weight="bold" lengthAdjust="spacingAndGlyphs" textLength="83" x="26" y="38.9951">tic_tac_toe</text><rect fill="#FEFECE" filter="url(#f1)" height="32" style="stroke: #A80036; stroke-width: 1.5;" width="71" x="255.5" y="243"/><ellipse cx="270.5" cy="259" fill="#EB937F" rx="11" ry="11" style="stroke: #A80036; stroke-width: 1.0;"/><path d="M274.6094,265 L266.8906,265 L266.8906,252.6094 L274.6094,252.6094 L274.6094,254.7656 L269.3438,254.7656 L269.3438,257.4375 L274.1094,257.4375 L274.1094,259.5938 L269.3438,259.5938 L269.3438,262.8438 L274.6094,262.8438 L274.6094,265 Z "/><text fill="#000000" font-family="sans-serif" font-size="12" lengthAdjust="spacingAndGlyphs" textLength="39" x="284.5" y="263.1543">Owner</text><rect fill="#FEFECE" filter="url(#f1)" height="32" style="stroke: #A80036; stroke-width: 1.5;" width="102" x="251" y="59"/><ellipse cx="266" cy="75" fill="#EB937F" rx="11" ry="11" style="stroke: #A80036; stroke-width: 1.0;"/><path d="M270.1094,81 L262.3906,81 L262.3906,68.6094 L270.1094,68.6094 L270.1094,70.7656 L264.8438,70.7656 L264.8438,73.4375 L269.6094,73.4375 L269.6094,75.5938 L264.8438,75.5938 L264.8438,78.8438 L270.1094,78.8438 L270.1094,81 Z "/><text fill="#000000" font-family="sans-serif" font-size="12" lengthAdjust="spacingAndGlyphs" textLength="70" x="280" y="79.1543">GameState</text><rect fill="#FEFECE" filter="url(#f1)" height="32" style="stroke: #A80036; stroke-width: 1.5;" width="68" x="148" y="59"/><ellipse cx="163" cy="75" fill="#ADD1B2" rx="11" ry="11" style="stroke: #A80036; stroke-width: 1.0;"/><path d="M165.9688,80.6406 Q165.3906,80.9375 164.75,81.0859 Q164.1094,81.2344 163.4063,81.2344 Q160.9063,81.2344 159.5859,79.5859 Q158.2656,77.9375 158.2656,74.8125 Q158.2656,71.6875 159.5859,70.0313 Q160.9063,68.375 163.4063,68.375 Q164.1094,68.375 164.7578,68.5313 Q165.4063,68.6875 165.9688,68.9844 L165.9688,71.7031 Q165.3438,71.125 164.75,70.8516 Q164.1563,70.5781 163.5313,70.5781 Q162.1875,70.5781 161.5,71.6484 Q160.8125,72.7188 160.8125,74.8125 Q160.8125,76.9063 161.5,77.9766 Q162.1875,79.0469 163.5313,79.0469 Q164.1563,79.0469 164.75,78.7734 Q165.3438,78.5 165.9688,77.9219 L165.9688,80.6406 Z "/><text fill="#000000" font-family="sans-serif" font-size="12" lengthAdjust="spacingAndGlyphs" textLength="36" x="177" y="79.1543">Game</text><rect fill="#FEFECE" filter="url(#f1)" height="32" style="stroke: #A80036; stroke-width: 1.5;" width="69" x="147.5" y="151"/><ellipse cx="162.5" cy="167" fill="#ADD1B2" rx="11" ry="11" style="stroke: #A80036; stroke-width: 1.0;"/><path d="M165.4688,172.6406 Q164.8906,172.9375 164.25,173.0859 Q163.6094,173.2344 162.9063,173.2344 Q160.4063,173.2344 159.0859,171.5859 Q157.7656,169.9375 157.7656,166.8125 Q157.7656,163.6875 159.0859,162.0313 Q160.4063,160.375 162.9063,160.375 Q163.6094,160.375 164.2578,160.5313 Q164.9063,160.6875 165.4688,160.9844 L165.4688,163.7031 Q164.8438,163.125 164.25,162.8516 Q163.6563,162.5781 163.0313,162.5781 Q161.6875,162.5781 161,163.6484 Q160.3125,164.7188 160.3125,166.8125 Q160.3125,168.9063 161,169.9766 Q161.6875,171.0469 163.0313,171.0469 Q163.6563,171.0469 164.25,170.7734 Q164.8438,170.5 165.4688,169.9219 L165.4688,172.6406 Z "/><text fill="#000000" font-family="sans-serif" font-size="12" lengthAdjust="spacingAndGlyphs" textLength="37" x="176.5" y="171.1543">Board</text><rect fill="#FEFECE" filter="url(#f1)" height="32" style="stroke: #A80036; stroke-width: 1.5;" width="77" x="143.5" y="243"/><ellipse cx="158.5" cy="259" fill="#ADD1B2" rx="11" ry="11" style="stroke: #A80036; stroke-width: 1.0;"/><path d="M161.4688,264.6406 Q160.8906,264.9375 160.25,265.0859 Q159.6094,265.2344 158.9063,265.2344 Q156.4063,265.2344 155.0859,263.5859 Q153.7656,261.9375 153.7656,258.8125 Q153.7656,255.6875 155.0859,254.0313 Q156.4063,252.375 158.9063,252.375 Q159.6094,252.375 160.2578,252.5313 Q160.9063,252.6875 161.4688,252.9844 L161.4688,255.7031 Q160.8438,255.125 160.25,254.8516 Q159.6563,254.5781 159.0313,254.5781 Q157.6875,254.5781 157,255.6484 Q156.3125,256.7188 156.3125,258.8125 Q156.3125,260.9063 157,261.9766 Q157.6875,263.0469 159.0313,263.0469 Q159.6563,263.0469 160.25,262.7734 Q160.8438,262.5 161.4688,261.9219 L161.4688,264.6406 Z "/><text fill="#000000" font-family="sans-serif" font-size="12" lengthAdjust="spacingAndGlyphs" textLength="45" x="172.5" y="263.1543">Square</text><rect fill="#FEFECE" filter="url(#f1)" height="32" style="stroke: #A80036; stroke-width: 1.5;" width="75" x="37.5" y="59"/><ellipse cx="52.5" cy="75" fill="#ADD1B2" rx="11" ry="11" style="stroke: #A80036; stroke-width: 1.0;"/><path d="M55.4688,80.6406 Q54.8906,80.9375 54.25,81.0859 Q53.6094,81.2344 52.9063,81.2344 Q50.4063,81.2344 49.0859,79.5859 Q47.7656,77.9375 47.7656,74.8125 Q47.7656,71.6875 49.0859,70.0313 Q50.4063,68.375 52.9063,68.375 Q53.6094,68.375 54.2578,68.5313 Q54.9063,68.6875 55.4688,68.9844 L55.4688,71.7031 Q54.8438,71.125 54.25,70.8516 Q53.6563,70.5781 53.0313,70.5781 Q51.6875,70.5781 51,71.6484 Q50.3125,72.7188 50.3125,74.8125 Q50.3125,76.9063 51,77.9766 Q51.6875,79.0469 53.0313,79.0469 Q53.6563,79.0469 54.25,78.7734 Q54.8438,78.5 55.4688,77.9219 L55.4688,80.6406 Z "/><text fill="#000000" font-family="sans-serif" font-size="12" lengthAdjust="spacingAndGlyphs" textLength="43" x="66.5" y="79.1543">AIMove</text><path d="M182,104.34 C182,119.785 182,138.279 182,150.958 " fill="none" style="stroke: #A80036; stroke-width: 1.0;"/><polygon fill="#FFFFFF" points="182,91.267,178,97.267,182,103.267,186,97.267,182,91.267" style="stroke: #A80036; stroke-width: 1.0;"/><path d="M229.431,75 C236.531,75 243.632,75 250.732,75 " fill="none" style="stroke: #A80036; stroke-width: 1.0;"/><polygon fill="#FFFFFF" points="216.219,75,222.219,79,228.219,75,222.219,71,216.219,75" style="stroke: #A80036; stroke-width: 1.0;"/><path d="M182,196.34 C182,211.7851 182,230.2788 182,242.9582 " fill="none" style="stroke: #A80036; stroke-width: 1.0;"/><polygon fill="#A80036" points="182,183.267,178,189.267,182,195.267,186,189.267,182,183.267" style="stroke: #A80036; stroke-width: 1.0;"/><text fill="#000000" font-family="sans-serif" font-size="13" lengthAdjust="spacingAndGlyphs" textLength="8" x="172.725" y="202.9308">1</text><text fill="#000000" font-family="sans-serif" font-size="13" lengthAdjust="spacingAndGlyphs" textLength="8" x="172.625" y="231.9554">n</text><path d="M233.983,259 C241.097,259 248.21,259 255.324,259 " fill="none" style="stroke: #A80036; stroke-width: 1.0;"/><polygon fill="#FFFFFF" points="220.746,259,226.746,263,232.746,259,226.746,255,220.746,259" style="stroke: #A80036; stroke-width: 1.0;"/><path d="M112.617,75 C122.618,75 132.62,75 142.621,75 " fill="none" style="stroke: #A80036; stroke-width: 1.0; stroke-dasharray: 7.0,7.0;"/><polygon fill="#A80036" points="147.851,75,138.851,71,142.851,75,138.851,79,147.851,75" style="stroke: #A80036; stroke-width: 1.0;"/></g></svg>