<?xml version="1.0" encoding="UTF-8" standalone="no"?><svg xmlns="http://www.w3.org/2000/svg" xmlns:xlink="http://www.w3.org/1999/xlink" contentScriptType="application/ecmascript" contentStyleType="text/css" height="274px" preserveAspectRatio="none" style="width:506px;height:274px;" version="1.1" viewBox="0 0 506 274" width="506px" zoomAndPan="magnify"><defs><filter height="300%" id="f159senmysppoa" width="300%" x="-1" y="-1"><feGaussianBlur result="blurOut" stdDeviation="2.0"/><feColorMatrix in="blurOut" result="blurOut2" type="matrix" values="0 0 0 0 0 0 0 0 0 0 0 0 0 0 0 0 0 0 .4 0"/><feOffset dx="4.0" dy="4.0" in="blurOut2" result="blurOut3"/><feBlend in="SourceGraphic" in2="blurOut3" mode="normal"/></filter></defs><g><!--class Board--><rect fill="#FEFECE" filter="url(#f159senmysppoa)" height="116.8281" id="Board" style="stroke: #A80036; stroke-width: 1.5;" width="264" x="37" y="8"/><ellipse cx="146.25" cy="24" fill="#ADD1B2" rx="11" ry="11" style="stroke: #A80036; stroke-width: 1.0;"/><path d="M149.2188,29.6406 Q148.6406,29.9375 148,30.0859 Q147.3594,30.2344 146.6563,30.2344 Q144.1563,30.2344 142.8359,28.5859 Q141.5156,26.9375 141.5156,23.8125 Q141.5156,20.6875 142.8359,19.0313 Q144.1563,17.375 146.6563,17.375 Q147.3594,17.375 148.0078,17.5313 Q148.6563,17.6875 149.2188,17.9844 L149.2188,20.7031 Q148.5938,20.125 148,19.8516 Q147.4063,19.5781 146.7813,19.5781 Q145.4375,19.5781 144.75,20.6484 Q144.0625,21.7188 144.0625,23.8125 Q144.0625,25.9063 144.75,26.9766 Q145.4375,28.0469 146.7813,28.0469 Q147.4063,28.0469 148,27.7734 Q148.5938,27.5 149.2188,26.9219 L149.2188,29.6406 Z "/><text fill="#000000" font-family="sans-serif" font-size="12" lengthAdjust="spacingAndGlyphs" textLength="37" x="166.75" y="28.1543">Board</text><line style="stroke: #A80036; stroke-width: 1.5;" x1="38" x2="300" y1="40" y2="40"/><ellipse cx="48" cy="51.9023" fill="#84BE84" rx="3" ry="3" style="stroke: #038048; stroke-width: 1.0;"/><text fill="#000000" font-family="sans-serif" font-size="11" lengthAdjust="spacingAndGlyphs" textLength="54" x="57" y="54.2104">new(Size)</text><ellipse cx="48" cy="64.707" fill="#84BE84" rx="3" ry="3" style="stroke: #038048; stroke-width: 1.0;"/><text fill="#000000" font-family="sans-serif" font-size="11" lengthAdjust="spacingAndGlyphs" textLength="74" x="57" y="67.0151">size() -&gt; Size</text><ellipse cx="48" cy="77.5117" fill="#84BE84" rx="3" ry="3" style="stroke: #038048; stroke-width: 1.0;"/><text fill="#000000" font-family="sans-serif" font-size="11" lengthAdjust="spacingAndGlyphs" textLength="146" x="57" y="79.8198">contains(Position) -&gt; bool</text><ellipse cx="48" cy="90.3164" fill="#84BE84" rx="3" ry="3" style="stroke: #038048; stroke-width: 1.0;"/><text fill="#000000" font-family="sans-serif" font-size="11" lengthAdjust="spacingAndGlyphs" textLength="184" x="57" y="92.6245">get(Position) -&gt; Option&lt;Owner&gt;</text><ellipse cx="48" cy="103.1211" fill="#84BE84" rx="3" ry="3" style="stroke: #038048; stroke-width: 1.0;"/><text fill="#000000" font-family="sans-serif" font-size="11" lengthAdjust="spacingAndGlyphs" textLength="238" x="57" y="105.4292">get_mut(Position) -&gt; Option&lt;mut Owner&gt;</text><ellipse cx="48" cy="115.9258" fill="#84BE84" rx="3" ry="3" style="stroke: #038048; stroke-width: 1.0;"/><text fill="#000000" font-family="sans-serif" font-size="11" lengthAdjust="spacingAndGlyphs" textLength="67" x="57" y="118.2339">iter() -&gt; Iter</text><!--class Iter--><rect fill="#FEFECE" filter="url(#f159senmysppoa)" height="71.5469" id="Iter" style="stroke: #A80036; stroke-width: 1.5;" width="159" x="336.5" y="30.5"/><ellipse cx="382.75" cy="49.4688" fill="#ADD1B2" rx="11" ry="11" style="stroke: #A80036; stroke-width: 1.0;"/><path d="M385.7188,55.1094 Q385.1406,55.4063 384.5,55.5547 Q383.8594,55.7031 383.1563,55.7031 Q380.6563,55.7031 379.3359,54.0547 Q378.0156,52.4063 378.0156,49.2813 Q378.0156,46.1563 379.3359,44.5 Q380.6563,42.8438 383.1563,42.8438 Q383.8594,42.8438 384.5078,43 Q385.1563,43.1563 385.7188,43.4531 L385.7188,46.1719 Q385.0938,45.5938 384.5,45.3203 Q383.9063,45.0469 383.2813,45.0469 Q381.9375,45.0469 381.25,46.1172 Q380.5625,47.1875 380.5625,49.2813 Q380.5625,51.375 381.25,52.4453 Q381.9375,53.5156 383.2813,53.5156 Q383.9063,53.5156 384.5,53.2422 Q385.0938,52.9688 385.7188,52.3906 L385.7188,55.1094 Z "/><text fill="#000000" font-family="sans-serif" font-size="12" font-style="italic" lengthAdjust="spacingAndGlyphs" textLength="62" x="401.25" y="46.6387">«Iterator»</text><text fill="#000000" font-family="sans-serif" font-size="12" lengthAdjust="spacingAndGlyphs" textLength="21" x="421.75" y="60.6074">Iter</text><line style="stroke: #A80036; stroke-width: 1.5;" x1="337.5" x2="494.5" y1="68.4375" y2="68.4375"/><ellipse cx="347.5" cy="80.3398" fill="#84BE84" rx="3" ry="3" style="stroke: #038048; stroke-width: 1.0;"/><text fill="#000000" font-family="sans-serif" font-size="11" lengthAdjust="spacingAndGlyphs" textLength="131" x="356.5" y="82.6479">Item: (Position, Owner)</text><ellipse cx="347.5" cy="93.1445" fill="#84BE84" rx="3" ry="3" style="stroke: #038048; stroke-width: 1.0;"/><text fill="#000000" font-family="sans-serif" font-size="11" lengthAdjust="spacingAndGlyphs" textLength="133" x="356.5" y="95.4526">next() -&gt; Option&lt;Item&gt;</text><!--class Position--><rect fill="#FEFECE" filter="url(#f159senmysppoa)" height="65.6094" id="Position" style="stroke: #A80036; stroke-width: 1.5;" width="92" x="6" y="191"/><ellipse cx="25.5" cy="207" fill="#ADD1B2" rx="11" ry="11" style="stroke: #A80036; stroke-width: 1.0;"/><path d="M28.4688,212.6406 Q27.8906,212.9375 27.25,213.0859 Q26.6094,213.2344 25.9063,213.2344 Q23.4063,213.2344 22.0859,211.5859 Q20.7656,209.9375 20.7656,206.8125 Q20.7656,203.6875 22.0859,202.0313 Q23.4063,200.375 25.9063,200.375 Q26.6094,200.375 27.2578,200.5313 Q27.9063,200.6875 28.4688,200.9844 L28.4688,203.7031 Q27.8438,203.125 27.25,202.8516 Q26.6563,202.5781 26.0313,202.5781 Q24.6875,202.5781 24,203.6484 Q23.3125,204.7188 23.3125,206.8125 Q23.3125,208.9063 24,209.9766 Q24.6875,211.0469 26.0313,211.0469 Q26.6563,211.0469 27.25,210.7734 Q27.8438,210.5 28.4688,209.9219 L28.4688,212.6406 Z "/><text fill="#000000" font-family="sans-serif" font-size="12" lengthAdjust="spacingAndGlyphs" textLength="50" x="40.5" y="211.1543">Position</text><line style="stroke: #A80036; stroke-width: 1.5;" x1="7" x2="97" y1="223" y2="223"/><ellipse cx="17" cy="234.9023" fill="none" rx="3" ry="3" style="stroke: #038048; stroke-width: 1.0;"/><text fill="#000000" font-family="sans-serif" font-size="11" lengthAdjust="spacingAndGlyphs" textLength="46" x="26" y="237.2104">row: i32</text><ellipse cx="17" cy="247.707" fill="none" rx="3" ry="3" style="stroke: #038048; stroke-width: 1.0;"/><text fill="#000000" font-family="sans-serif" font-size="11" lengthAdjust="spacingAndGlyphs" textLength="66" x="26" y="250.0151">column: i32</text><!--class Owner--><rect fill="#FEFECE" filter="url(#f159senmysppoa)" height="78.4141" id="Owner" style="stroke: #A80036; stroke-width: 1.5;" width="71" x="133.5" y="185"/><ellipse cx="148.5" cy="201" fill="#EB937F" rx="11" ry="11" style="stroke: #A80036; stroke-width: 1.0;"/><path d="M152.6094,207 L144.8906,207 L144.8906,194.6094 L152.6094,194.6094 L152.6094,196.7656 L147.3438,196.7656 L147.3438,199.4375 L152.1094,199.4375 L152.1094,201.5938 L147.3438,201.5938 L147.3438,204.8438 L152.6094,204.8438 L152.6094,207 Z "/><text fill="#000000" font-family="sans-serif" font-size="12" lengthAdjust="spacingAndGlyphs" textLength="39" x="162.5" y="205.1543">Owner</text><line style="stroke: #A80036; stroke-width: 1.5;" x1="134.5" x2="203.5" y1="217" y2="217"/><text fill="#000000" font-family="sans-serif" font-size="11" lengthAdjust="spacingAndGlyphs" textLength="42" x="139.5" y="231.2104">PlayerX</text><text fill="#000000" font-family="sans-serif" font-size="11" lengthAdjust="spacingAndGlyphs" textLength="44" x="139.5" y="244.0151">PlayerO</text><text fill="#000000" font-family="sans-serif" font-size="11" lengthAdjust="spacingAndGlyphs" textLength="29" x="139.5" y="256.8198">None</text><!--class Size--><rect fill="#FEFECE" filter="url(#f159senmysppoa)" height="65.6094" id="Size" style="stroke: #A80036; stroke-width: 1.5;" width="99" x="239.5" y="191"/><ellipse cx="273.85" cy="207" fill="#ADD1B2" rx="11" ry="11" style="stroke: #A80036; stroke-width: 1.0;"/><path d="M276.8188,212.6406 Q276.2406,212.9375 275.6,213.0859 Q274.9594,213.2344 274.2563,213.2344 Q271.7563,213.2344 270.4359,211.5859 Q269.1156,209.9375 269.1156,206.8125 Q269.1156,203.6875 270.4359,202.0313 Q271.7563,200.375 274.2563,200.375 Q274.9594,200.375 275.6078,200.5313 Q276.2563,200.6875 276.8188,200.9844 L276.8188,203.7031 Q276.1938,203.125 275.6,202.8516 Q275.0063,202.5781 274.3813,202.5781 Q273.0375,202.5781 272.35,203.6484 Q271.6625,204.7188 271.6625,206.8125 Q271.6625,208.9063 272.35,209.9766 Q273.0375,211.0469 274.3813,211.0469 Q275.0063,211.0469 275.6,210.7734 Q276.1938,210.5 276.8188,209.9219 L276.8188,212.6406 Z "/><text fill="#000000" font-family="sans-serif" font-size="12" lengthAdjust="spacingAndGlyphs" textLength="24" x="292.15" y="211.1543">Size</text><line style="stroke: #A80036; stroke-width: 1.5;" x1="240.5" x2="337.5" y1="223" y2="223"/><ellipse cx="250.5" cy="234.9023" fill="none" rx="3" ry="3" style="stroke: #038048; stroke-width: 1.0;"/><text fill="#000000" font-family="sans-serif" font-size="11" lengthAdjust="spacingAndGlyphs" textLength="53" x="259.5" y="237.2104">rows: i32</text><ellipse cx="250.5" cy="247.707" fill="none" rx="3" ry="3" style="stroke: #038048; stroke-width: 1.0;"/><text fill="#000000" font-family="sans-serif" font-size="11" lengthAdjust="spacingAndGlyphs" textLength="73" x="259.5" y="250.0151">columns: i32</text><!--link Board to Position--><path d="M117.5955,135.6984 C103.3419,154.8859 88.518,174.8411 76.5761,190.9169 " fill="none" id="Board-Position" style="stroke: #A80036; stroke-width: 1.0;"/><polygon fill="#A80036" points="125.4335,125.1472,118.6446,127.5783,118.2776,134.7801,125.0665,132.349,125.4335,125.1472" style="stroke: #A80036; stroke-width: 1.0;"/><text fill="#000000" font-family="sans-serif" font-size="13" lengthAdjust="spacingAndGlyphs" textLength="23" x="96.0664" y="144.88">1..*</text><!--link Board to Owner--><path d="M169,138.4394 C169,154.4389 169,170.8162 169,184.903 " fill="none" id="Board-Owner" style="stroke: #A80036; stroke-width: 1.0;"/><polygon fill="#A80036" points="169,125.1472,165,131.1472,169,137.1472,173,131.1472,169,125.1472" style="stroke: #A80036; stroke-width: 1.0;"/><text fill="#000000" font-family="sans-serif" font-size="13" lengthAdjust="spacingAndGlyphs" textLength="23" x="144.6703" y="144.88">1..*</text><!--link Board to Size--><path d="M221.7226,135.6984 C236.3416,154.8859 251.5456,174.8411 263.7938,190.9169 " fill="none" id="Board-Size" style="stroke: #A80036; stroke-width: 1.0;"/><polygon fill="#A80036" points="213.6836,125.1472,214.1381,132.344,220.9561,134.6924,220.5016,127.4956,213.6836,125.1472" style="stroke: #A80036; stroke-width: 1.0;"/><!--
@startuml
hide empty fields
hide empty methods

class Board {
    +new(Size)
    +size() -> Size
    +contains(Position) -> bool
    +get(Position) -> Option<Owner>
    +get_mut(Position) -> Option<mut Owner>
    +iter() -> Iter
}

class Iter << Iterator >> {
    +Item: (Position, Owner)
    +next() -> Option<Item>
}

class Position {
    +row: i32
    +column: i32
}

enum Owner {
    PlayerX
    PlayerO
    None
}

class Size {
    +rows: i32
    +columns: i32
}

Board "1..*" *- - Position
Board "1..*" *- - Owner
Board *- - Size

@enduml

PlantUML version 1.2019.01(Sat Feb 09 07:32:04 PST 2019)
(LGPL source distribution)
Java Runtime: OpenJDK Runtime Environment
JVM: OpenJDK 64-Bit Server VM
Java Version: 1.8.0_232-b09
Operating System: Linux
OS Version: 5.3.7-200.fc30.x86_64
Default Encoding: UTF-8
Language: en
Country: US
--></g></svg>