<?xml version="1.0" encoding="UTF-8" standalone="no"?><svg xmlns="http://www.w3.org/2000/svg" xmlns:xlink="http://www.w3.org/1999/xlink" contentScriptType="application/ecmascript" contentStyleType="text/css" height="736px" preserveAspectRatio="none" style="width:418px;height:736px;" version="1.1" viewBox="0 0 418 736" width="418px" zoomAndPan="magnify"><defs><filter height="300%" id="f1ickknwgrvtj6" width="300%" x="-1" y="-1"><feGaussianBlur result="blurOut" stdDeviation="2.0"/><feColorMatrix in="blurOut" result="blurOut2" type="matrix" values="0 0 0 0 0 0 0 0 0 0 0 0 0 0 0 0 0 0 .4 0"/><feOffset dx="4.0" dy="4.0" in="blurOut2" result="blurOut3"/><feBlend in="SourceGraphic" in2="blurOut3" mode="normal"/></filter></defs><g><rect fill="#FEFECE" filter="url(#f1ickknwgrvtj6)" height="40" rx="12.5" ry="12.5" style="stroke: #A80036; stroke-width: 1.5;" width="129" x="133.9688" y="109"/><text fill="#000000" font-family="sans-serif" font-size="14" lengthAdjust="spacingAndGlyphs" textLength="119" x="138.9688" y="133.8467">Tic-tac-toe Board</text><rect fill="#FEFECE" filter="url(#f1ickknwgrvtj6)" height="40" rx="12.5" ry="12.5" style="stroke: #A80036; stroke-width: 1.5;" width="85" x="99.9688" y="229.5"/><text fill="#000000" font-family="sans-serif" font-size="14" lengthAdjust="spacingAndGlyphs" textLength="75" x="104.9688" y="254.3467">Main Menu</text><rect fill="#FEFECE" filter="url(#f1ickknwgrvtj6)" height="40" rx="12.5" ry="12.5" style="stroke: #A80036; stroke-width: 1.5;" width="98" x="179.4688" y="350"/><text fill="#000000" font-family="sans-serif" font-size="14" lengthAdjust="spacingAndGlyphs" textLength="88" x="184.4688" y="374.8467">Single-player</text><rect fill="#FEFECE" filter="url(#f1ickknwgrvtj6)" height="40" rx="12.5" ry="12.5" style="stroke: #A80036; stroke-width: 1.5;" width="78" x="189.4688" y="467"/><text fill="#000000" font-family="sans-serif" font-size="14" lengthAdjust="spacingAndGlyphs" textLength="68" x="194.4688" y="491.8467">Speedrun</text><rect fill="#FEFECE" filter="url(#f1ickknwgrvtj6)" height="40" rx="12.5" ry="12.5" style="stroke: #A80036; stroke-width: 1.5;" width="123" x="153.9688" y="584"/><text fill="#000000" font-family="sans-serif" font-size="14" lengthAdjust="spacingAndGlyphs" textLength="113" x="158.9688" y="608.8467">Speedrun Board</text><rect fill="#FEFECE" filter="url(#f1ickknwgrvtj6)" height="40" rx="12.5" ry="12.5" style="stroke: #A80036; stroke-width: 1.5;" width="119" x="221.9688" y="685"/><text fill="#000000" font-family="sans-serif" font-size="14" lengthAdjust="spacingAndGlyphs" textLength="109" x="226.9688" y="709.8467">New Best Time!</text><rect fill="#FEFECE" filter="url(#f1ickknwgrvtj6)" height="40" rx="12.5" ry="12.5" style="stroke: #A80036; stroke-width: 1.5;" width="64" x="166.4688" y="8"/><text fill="#000000" font-family="sans-serif" font-size="14" lengthAdjust="spacingAndGlyphs" textLength="54" x="171.4688" y="32.8467">Loading</text><rect fill="#FEFECE" filter="url(#f1ickknwgrvtj6)" height="40" rx="12.5" ry="12.5" style="stroke: #A80036; stroke-width: 1.5;" width="50" x="59.4688" y="350"/><text fill="#000000" font-family="sans-serif" font-size="14" lengthAdjust="spacingAndGlyphs" textLength="31" x="68.9688" y="374.8467">Help</text><!--link Loading to game_board--><path d="M198.4688,48.4389 C198.4688,64.4236 198.4688,86.7261 198.4688,103.8135 " fill="none" id="Loading-game_board" style="stroke: #A80036; stroke-width: 1.0;"/><polygon fill="#A80036" points="198.4688,108.9362,202.4688,99.9362,198.4688,103.9362,194.4688,99.9362,198.4688,108.9362" style="stroke: #A80036; stroke-width: 1.0;"/><!--link game_board to main_menu--><path d="M133.6702,137.9489 C86.1304,145.9971 27.3716,159.5621 12.4688,179 C-13.2294,212.5187 47.7815,232.0711 94.6745,241.7656 " fill="none" id="game_board-main_menu" style="stroke: #A80036; stroke-width: 1.0;"/><polygon fill="#A80036" points="99.7393,242.7863,91.707,237.087,94.8379,241.7984,90.1264,244.9293,99.7393,242.7863" style="stroke: #A80036; stroke-width: 1.0;"/><text fill="#000000" font-family="sans-serif" font-size="13" lengthAdjust="spacingAndGlyphs" textLength="73" x="13.4688" y="192.0669">Menu / ESC</text><!--link main_menu to game_board--><path d="M131.3258,229.3934 C124.7954,214.7387 119.2851,194.7725 127.4688,179 C133.0583,168.2274 142.153,159.2857 151.9959,152.0887 " fill="none" id="main_menu-game_board" style="stroke: #A80036; stroke-width: 1.0;"/><polygon fill="#A80036" points="156.252,149.1108,146.5847,150.993,152.1552,151.9773,151.171,157.5478,156.252,149.1108" style="stroke: #A80036; stroke-width: 1.0;"/><text fill="#000000" font-family="sans-serif" font-size="13" lengthAdjust="spacingAndGlyphs" textLength="95" x="128.4688" y="192.0669">Resume Game</text><!--link main_menu to game_board--><path d="M185.3128,233.6427 C201.8753,225.1632 219.0746,212.9077 228.4688,196 C236.0878,182.2874 229.4451,166.2724 220.4936,153.339 " fill="none" id="main_menu-game_board" style="stroke: #A80036; stroke-width: 1.0;"/><polygon fill="#A80036" points="217.3866,149.0788,219.4578,158.7074,220.3327,153.1186,225.9215,153.9936,217.3866,149.0788" style="stroke: #A80036; stroke-width: 1.0;"/><text fill="#000000" font-family="sans-serif" font-size="13" lengthAdjust="spacingAndGlyphs" textLength="69" x="233.4688" y="192.0669">Multiplayer</text><!--link main_menu to singleplayer--><path d="M161.7458,269.558 C170.6539,279.2852 181.0896,291.3611 189.4688,303 C199.0638,316.3276 208.372,332.1711 215.4871,345.1046 " fill="none" id="main_menu-singleplayer" style="stroke: #A80036; stroke-width: 1.0;"/><polygon fill="#A80036" points="218.0057,349.7278,217.2127,339.9109,215.6137,345.3371,210.1875,343.7381,218.0057,349.7278" style="stroke: #A80036; stroke-width: 1.0;"/><text fill="#000000" font-family="sans-serif" font-size="13" lengthAdjust="spacingAndGlyphs" textLength="83" x="201.4688" y="316.0669">Single-player</text><!--link singleplayer to main_menu--><path d="M180.4573,349.807 C168.0551,342.2711 156.0699,332.4381 148.4688,320 C140.2539,306.5574 138.7641,288.8897 139.3229,274.6041 " fill="none" id="singleplayer-main_menu" style="stroke: #A80036; stroke-width: 1.0;"/><polygon fill="#A80036" points="139.6128,269.5081,135.1078,278.2662,139.3287,274.5,143.0949,278.7209,139.6128,269.5081" style="stroke: #A80036; stroke-width: 1.0;"/><text fill="#000000" font-family="sans-serif" font-size="13" lengthAdjust="spacingAndGlyphs" textLength="31" x="149.4688" y="316.0669">Back</text><!--link main_menu to Help--><path d="M109.8854,269.5723 C98.7156,278.3243 87.5146,289.6559 81.4688,303 C75.6148,315.9209 76.0119,331.7176 78.0363,344.7267 " fill="none" id="main_menu-Help" style="stroke: #A80036; stroke-width: 1.0;"/><polygon fill="#A80036" points="78.9176,349.7467,81.3009,340.1905,78.0529,344.822,73.4214,341.5741,78.9176,349.7467" style="stroke: #A80036; stroke-width: 1.0;"/><text fill="#000000" font-family="sans-serif" font-size="13" lengthAdjust="spacingAndGlyphs" textLength="29" x="82.4688" y="316.0669">Help</text><!--link singleplayer to game_board--><path d="M264.4703,349.8879 C275.47,341.9829 286.4918,331.918 293.4688,320 C406.3423,127.1913 330.1864,207.7501 311.4688,179 C301.305,163.3883 285.0347,152.6148 267.9701,145.1934 " fill="none" id="singleplayer-game_board" style="stroke: #A80036; stroke-width: 1.0;"/><polygon fill="#A80036" points="263.1404,143.1878,269.9182,150.3335,267.7581,145.1054,272.9863,142.9453,263.1404,143.1878" style="stroke: #A80036; stroke-width: 1.0;"/><text fill="#000000" font-family="sans-serif" font-size="13" lengthAdjust="spacingAndGlyphs" textLength="30" x="355.9688" y="239.0669">Easy</text><text fill="#000000" font-family="sans-serif" font-size="13" lengthAdjust="spacingAndGlyphs" textLength="51" x="347.4688" y="254.1997">Medium</text><text fill="#000000" font-family="sans-serif" font-size="13" lengthAdjust="spacingAndGlyphs" textLength="31" x="359.4688" y="269.3325">Hard</text><!--link singleplayer to speedrun--><path d="M197.6147,390.1679 C188.0335,398.192 178.6372,408.3166 173.4688,420 C166.3456,436.1024 177.2218,451.481 191.1326,463.4339 " fill="none" id="singleplayer-speedrun" style="stroke: #A80036; stroke-width: 1.0;"/><polygon fill="#A80036" points="195.1242,466.7122,190.708,457.909,191.2603,463.5388,185.6305,464.0911,195.1242,466.7122" style="stroke: #A80036; stroke-width: 1.0;"/><text fill="#000000" font-family="sans-serif" font-size="13" lengthAdjust="spacingAndGlyphs" textLength="62" x="174.4688" y="433.0669">Speedrun</text><!--link speedrun to singleplayer--><path d="M235.796,466.8794 C239.7716,453.6312 243.4978,435.8668 241.4688,420 C240.4336,411.904 238.4916,403.2458 236.4185,395.4482 " fill="none" id="speedrun-singleplayer" style="stroke: #A80036; stroke-width: 1.0;"/><polygon fill="#A80036" points="234.9718,390.2048,233.5096,399.9445,236.3016,395.0247,241.2214,397.8168,234.9718,390.2048" style="stroke: #A80036; stroke-width: 1.0;"/><text fill="#000000" font-family="sans-serif" font-size="13" lengthAdjust="spacingAndGlyphs" textLength="31" x="243.4688" y="433.0669">Back</text><!--link speedrun to speedrun_game_board--><path d="M189.2551,502.643 C174.6709,510.6093 159.6831,521.8719 151.4688,537 C142.4821,553.5507 155.1013,568.9765 171.4437,580.8445 " fill="none" id="speedrun-speedrun_game_board" style="stroke: #A80036; stroke-width: 1.0;"/><polygon fill="#A80036" points="175.6679,583.7836,170.5648,575.3599,171.5636,580.9279,165.9957,581.9268,175.6679,583.7836" style="stroke: #A80036; stroke-width: 1.0;"/><text fill="#000000" font-family="sans-serif" font-size="13" lengthAdjust="spacingAndGlyphs" textLength="32" x="152.4688" y="550.0669">Start</text><!--link speedrun_game_board to speedrun--><path d="M217.718,583.7579 C219.9181,563.9565 223.2755,533.7395 225.6522,512.3493 " fill="none" id="speedrun_game_board-speedrun" style="stroke: #A80036; stroke-width: 1.0;"/><polygon fill="#A80036" points="226.2341,507.113,221.2647,515.6162,225.682,512.0824,229.2158,516.4997,226.2341,507.113" style="stroke: #A80036; stroke-width: 1.0;"/><text fill="#000000" font-family="sans-serif" font-size="13" lengthAdjust="spacingAndGlyphs" textLength="94" x="224.4688" y="550.0669">Non Best Time</text><!--link speedrun_game_board to speedrun_best_time--><path d="M228.8249,624.4389 C239.4505,640.6992 254.3481,663.4971 265.5848,680.6926 " fill="none" id="speedrun_game_board-speedrun_best_time" style="stroke: #A80036; stroke-width: 1.0;"/><polygon fill="#A80036" points="268.3579,684.9362,266.7831,675.2141,265.6228,680.7506,260.0862,679.5903,268.3579,684.9362" style="stroke: #A80036; stroke-width: 1.0;"/><!--link speedrun_best_time to speedrun--><path d="M296.0863,684.9269 C318.2043,651.8729 354.6579,584.8846 325.4688,537 C313.7833,517.8299 292.1321,505.6938 272.245,498.1872 " fill="none" id="speedrun_best_time-speedrun" style="stroke: #A80036; stroke-width: 1.0;"/><polygon fill="#A80036" points="267.5021,496.4698,274.6026,503.295,272.2034,498.1721,277.3263,495.7729,267.5021,496.4698" style="stroke: #A80036; stroke-width: 1.0;"/><text fill="#000000" font-family="sans-serif" font-size="13" lengthAdjust="spacingAndGlyphs" textLength="35" x="336.4688" y="608.5669">Close</text><!--
@startuml
hide empty description

state "Tic-tac-toe Board" as game_board
state "Main Menu" as main_menu
state "Single-player" as singleplayer
state "Speedrun" as speedrun
state "Speedrun Board" as speedrun_game_board
state "New Best Time!" as speedrun_best_time

Loading - -> game_board
game_board - -> main_menu : Menu / ESC

main_menu - -> game_board : Resume Game
main_menu - -> game_board : Multiplayer
main_menu - -> singleplayer : Single-player
main_menu - -> Help : Help

singleplayer - -> game_board : Easy \n Medium \n Hard
singleplayer - -> speedrun : Speedrun
singleplayer - -> main_menu : Back

speedrun - -> singleplayer : Back
speedrun - -> speedrun_game_board : Start
speedrun_game_board - -> speedrun : Non Best Time
speedrun_game_board - -> speedrun_best_time
speedrun_best_time - -> speedrun : Close

@enduml

PlantUML version 1.2018.13(Mon Nov 26 09:11:51 PST 2018)
(GPL source distribution)
Java Runtime: OpenJDK Runtime Environment
JVM: OpenJDK 64-Bit Server VM
Java Version: 11.0.6+10-post-Debian-1deb10u1
Operating System: Linux
OS Version: 4.19.0-8-amd64
Default Encoding: UTF-8
Language: en
Country: US
--></g></svg>