<?xml version="1.0" encoding="UTF-8" standalone="no"?><svg xmlns="http://www.w3.org/2000/svg" xmlns:xlink="http://www.w3.org/1999/xlink" contentScriptType="application/ecmascript" contentStyleType="text/css" height="210px" preserveAspectRatio="none" style="width:265px;height:210px;" version="1.1" viewBox="0 0 265 210" width="265px" zoomAndPan="magnify"><defs><filter height="300%" id="f1ukrgb7jwxu0n" width="300%" x="-1" y="-1"><feGaussianBlur result="blurOut" stdDeviation="2.0"/><feColorMatrix in="blurOut" result="blurOut2" type="matrix" values="0 0 0 0 0 0 0 0 0 0 0 0 0 0 0 0 0 0 .4 0"/><feOffset dx="4.0" dy="4.0" in="blurOut2" result="blurOut3"/><feBlend in="SourceGraphic" in2="blurOut3" mode="normal"/></filter></defs><g><!--class Player--><rect fill="#FEFECE" filter="url(#f1ukrgb7jwxu0n)" height="65.6094" id="Player" style="stroke: #A80036; stroke-width: 1.5;" width="70" x="54" y="8"/><ellipse cx="69" cy="24" fill="#83C98D" rx="11" ry="11" style="stroke: #A80036; stroke-width: 1.0;"/><path d="M73.1094,30 L65.3906,30 L65.3906,17.6094 L73.1094,17.6094 L73.1094,19.7656 L67.8438,19.7656 L67.8438,22.4375 L72.6094,22.4375 L72.6094,24.5938 L67.8438,24.5938 L67.8438,27.8438 L73.1094,27.8438 L73.1094,30 Z "/><text fill="#000000" font-family="sans-serif" font-size="12" lengthAdjust="spacingAndGlyphs" textLength="38" x="83" y="28.1543">Player</text><line style="stroke: #A80036; stroke-width: 1.5;" x1="55" x2="123" y1="40" y2="40"/><ellipse cx="65" cy="51.9023" fill="none" rx="3" ry="3" style="stroke: #038048; stroke-width: 1.0;"/><text fill="#000000" font-family="sans-serif" font-size="11" lengthAdjust="spacingAndGlyphs" textLength="7" x="74" y="54.2104">X</text><ellipse cx="65" cy="64.707" fill="none" rx="3" ry="3" style="stroke: #038048; stroke-width: 1.0;"/><text fill="#000000" font-family="sans-serif" font-size="11" lengthAdjust="spacingAndGlyphs" textLength="9" x="74" y="67.0151">O</text><!--class Ai--><rect fill="#FEFECE" filter="url(#f1ukrgb7jwxu0n)" height="65.6094" id="Ai" style="stroke: #A80036; stroke-width: 1.5;" width="95" x="159.5" y="8"/><ellipse cx="197.9" cy="24" fill="#FF6AD3" rx="11" ry="11" style="stroke: #A80036; stroke-width: 1.0;"/><path d="M197.3844,24.5625 Q195.525,23.8594 194.8688,23.0938 Q194.2281,22.3125 194.2281,21 Q194.2281,19.3125 195.3063,18.3438 Q196.3844,17.375 198.2594,17.375 Q199.1188,17.375 199.9625,17.5781 Q200.8219,17.7656 201.6656,18.1563 L201.6656,20.5469 Q200.8844,19.9844 200.0563,19.7031 Q199.2438,19.4063 198.4469,19.4063 Q197.5719,19.4063 197.0875,19.7656 Q196.6188,20.125 196.6188,20.7813 Q196.6188,21.2969 196.9625,21.6406 Q197.3063,21.9688 198.4,22.375 L199.4625,22.7813 Q200.9469,23.3281 201.65,24.2344 Q202.3688,25.1406 202.3688,26.5156 Q202.3688,28.3906 201.2594,29.3125 Q200.15,30.2344 197.9,30.2344 Q196.9781,30.2344 196.0563,30.0156 Q195.1344,29.7969 194.275,29.375 L194.275,26.8438 Q195.2438,27.5313 196.1656,27.875 Q197.0875,28.2188 197.9781,28.2188 Q198.8844,28.2188 199.3844,27.8125 Q199.8844,27.3906 199.8844,26.6563 Q199.8844,26.0938 199.5406,25.6875 Q199.2125,25.2656 198.5875,25.0156 L197.3844,24.5625 Z "/><text fill="#000000" font-family="sans-serif" font-size="12" lengthAdjust="spacingAndGlyphs" textLength="11" x="217.1" y="28.1543">Ai</text><line style="stroke: #A80036; stroke-width: 1.5;" x1="160.5" x2="253.5" y1="40" y2="40"/><ellipse cx="170.5" cy="51.9023" fill="none" rx="3" ry="3" style="stroke: #038048; stroke-width: 1.0;"/><text fill="#000000" font-family="sans-serif" font-size="11" lengthAdjust="spacingAndGlyphs" textLength="69" x="179.5" y="54.2104">ai_opponent</text><ellipse cx="170.5" cy="64.707" fill="none" rx="3" ry="3" style="stroke: #038048; stroke-width: 1.0;"/><text fill="#000000" font-family="sans-serif" font-size="11" lengthAdjust="spacingAndGlyphs" textLength="67" x="179.5" y="67.0151">move_delay</text><!--class Mark--><rect fill="#FEFECE" filter="url(#f1ukrgb7jwxu0n)" height="65.6094" id="Mark" style="stroke: #A80036; stroke-width: 1.5;" width="166" x="6" y="134"/><ellipse cx="69.75" cy="150" fill="#FF6AD3" rx="11" ry="11" style="stroke: #A80036; stroke-width: 1.0;"/><path d="M69.2344,150.5625 Q67.375,149.8594 66.7188,149.0938 Q66.0781,148.3125 66.0781,147 Q66.0781,145.3125 67.1563,144.3438 Q68.2344,143.375 70.1094,143.375 Q70.9688,143.375 71.8125,143.5781 Q72.6719,143.7656 73.5156,144.1563 L73.5156,146.5469 Q72.7344,145.9844 71.9063,145.7031 Q71.0938,145.4063 70.2969,145.4063 Q69.4219,145.4063 68.9375,145.7656 Q68.4688,146.125 68.4688,146.7813 Q68.4688,147.2969 68.8125,147.6406 Q69.1563,147.9688 70.25,148.375 L71.3125,148.7813 Q72.7969,149.3281 73.5,150.2344 Q74.2188,151.1406 74.2188,152.5156 Q74.2188,154.3906 73.1094,155.3125 Q72,156.2344 69.75,156.2344 Q68.8281,156.2344 67.9063,156.0156 Q66.9844,155.7969 66.125,155.375 L66.125,152.8438 Q67.0938,153.5313 68.0156,153.875 Q68.9375,154.2188 69.8281,154.2188 Q70.7344,154.2188 71.2344,153.8125 Q71.7344,153.3906 71.7344,152.6563 Q71.7344,152.0938 71.3906,151.6875 Q71.0625,151.2656 70.4375,151.0156 L69.2344,150.5625 Z "/><text fill="#000000" font-family="sans-serif" font-size="12" lengthAdjust="spacingAndGlyphs" textLength="30" x="90.25" y="154.1543">Mark</text><line style="stroke: #A80036; stroke-width: 1.5;" x1="7" x2="171" y1="166" y2="166"/><ellipse cx="17" cy="177.9023" fill="none" rx="3" ry="3" style="stroke: #038048; stroke-width: 1.0;"/><text fill="#000000" font-family="sans-serif" font-size="11" lengthAdjust="spacingAndGlyphs" textLength="78" x="26" y="180.2104">owner: Player</text><ellipse cx="17" cy="190.707" fill="none" rx="3" ry="3" style="stroke: #038048; stroke-width: 1.0;"/><text fill="#000000" font-family="sans-serif" font-size="11" lengthAdjust="spacingAndGlyphs" textLength="140" x="26" y="193.0151">position: Board::Position</text><!--link Player to Ai--><!--link Player to Mark--><!--
@startuml



hide empty members

enum Player << (E,#83c98d) >> {
    + X
    + O
}

class Ai << (S,#ff6ad3) >> {
    + ai_opponent
    + move_delay
}

class Mark << (S,#ff6ad3) >> {
    + owner: Player
    + position: Board::Position
}

@enduml

PlantUML version 1.2018.13(Mon Nov 26 09:11:51 PST 2018)
(GPL source distribution)
Java Runtime: OpenJDK Runtime Environment
JVM: OpenJDK 64-Bit Server VM
Java Version: 11.0.7+10-post-Debian-3deb10u1
Operating System: Linux
OS Version: 4.19.0-9-amd64
Default Encoding: UTF-8
Language: en
Country: US
--></g></svg>