<?xml version="1.0" encoding="UTF-8" standalone="no"?><svg xmlns="http://www.w3.org/2000/svg" xmlns:xlink="http://www.w3.org/1999/xlink" contentScriptType="application/ecmascript" contentStyleType="text/css" height="131px" preserveAspectRatio="none" style="width:272px;height:131px;" version="1.1" viewBox="0 0 272 131" width="272px" zoomAndPan="magnify"><defs><filter height="300%" id="fjvgbtgzecjg8" width="300%" x="-1" y="-1"><feGaussianBlur result="blurOut" stdDeviation="2.0"/><feColorMatrix in="blurOut" result="blurOut2" type="matrix" values="0 0 0 0 0 0 0 0 0 0 0 0 0 0 0 0 0 0 .4 0"/><feOffset dx="4.0" dy="4.0" in="blurOut2" result="blurOut3"/><feBlend in="SourceGraphic" in2="blurOut3" mode="normal"/></filter></defs><g><!--class Grid--><rect fill="#FEFECE" filter="url(#fjvgbtgzecjg8)" height="112.0234" id="Grid" style="stroke: #A80036; stroke-width: 1.5;" width="255" x="6" y="8"/><ellipse cx="116.75" cy="24" fill="#FF6AD3" rx="11" ry="11" style="stroke: #A80036; stroke-width: 1.0;"/><path d="M116.2344,24.5625 Q114.375,23.8594 113.7188,23.0938 Q113.0781,22.3125 113.0781,21 Q113.0781,19.3125 114.1563,18.3438 Q115.2344,17.375 117.1094,17.375 Q117.9688,17.375 118.8125,17.5781 Q119.6719,17.7656 120.5156,18.1563 L120.5156,20.5469 Q119.7344,19.9844 118.9063,19.7031 Q118.0938,19.4063 117.2969,19.4063 Q116.4219,19.4063 115.9375,19.7656 Q115.4688,20.125 115.4688,20.7813 Q115.4688,21.2969 115.8125,21.6406 Q116.1563,21.9688 117.25,22.375 L118.3125,22.7813 Q119.7969,23.3281 120.5,24.2344 Q121.2188,25.1406 121.2188,26.5156 Q121.2188,28.3906 120.1094,29.3125 Q119,30.2344 116.75,30.2344 Q115.8281,30.2344 114.9063,30.0156 Q113.9844,29.7969 113.125,29.375 L113.125,26.8438 Q114.0938,27.5313 115.0156,27.875 Q115.9375,28.2188 116.8281,28.2188 Q117.7344,28.2188 118.2344,27.8125 Q118.7344,27.3906 118.7344,26.6563 Q118.7344,26.0938 118.3906,25.6875 Q118.0625,25.2656 117.4375,25.0156 L116.2344,24.5625 Z "/><text fill="#000000" font-family="sans-serif" font-size="12" lengthAdjust="spacingAndGlyphs" textLength="25" x="137.25" y="28.1543">Grid</text><line style="stroke: #A80036; stroke-width: 1.5;" x1="7" x2="260" y1="40" y2="40"/><ellipse cx="17" cy="51.9023" fill="none" rx="3" ry="3" style="stroke: #038048; stroke-width: 1.0;"/><text fill="#000000" font-family="sans-serif" font-size="11" lengthAdjust="spacingAndGlyphs" textLength="68" x="26" y="54.2104">origin: Point</text><ellipse cx="17" cy="64.707" fill="none" rx="3" ry="3" style="stroke: #038048; stroke-width: 1.0;"/><text fill="#000000" font-family="sans-serif" font-size="11" lengthAdjust="spacingAndGlyphs" textLength="58" x="26" y="67.0151">size: Point</text><line style="stroke: #A80036; stroke-width: 1.5;" x1="7" x2="260" y1="73.6094" y2="73.6094"/><ellipse cx="17" cy="85.5117" fill="#84BE84" rx="3" ry="3" style="stroke: #038048; stroke-width: 1.0;"/><text fill="#000000" font-family="sans-serif" font-size="11" lengthAdjust="spacingAndGlyphs" textLength="171" x="26" y="87.8198">center_points() -&gt; vec&lt;Point&gt;</text><ellipse cx="17" cy="98.3164" fill="#84BE84" rx="3" ry="3" style="stroke: #038048; stroke-width: 1.0;"/><text fill="#000000" font-family="sans-serif" font-size="11" lengthAdjust="spacingAndGlyphs" textLength="229" x="26" y="100.6245">to_position(Point) -&gt; Optional&lt;Position&gt;</text><ellipse cx="17" cy="111.1211" fill="#84BE84" rx="3" ry="3" style="stroke: #038048; stroke-width: 1.0;"/><text fill="#000000" font-family="sans-serif" font-size="11" lengthAdjust="spacingAndGlyphs" textLength="163" x="26" y="113.4292">cell(Position) -&gt; (origin, size)</text><!--
@startuml



hide empty members

class Grid << (S,#ff6ad3) >> {
    + origin: Point
    + size: Point
    + center_points() -> vec<Point>
    + to_position(Point) -> Optional<Position>
    + cell(Position) -> (origin, size)
}

@enduml

PlantUML version 1.2018.13(Mon Nov 26 09:11:51 PST 2018)
(GPL source distribution)
Java Runtime: OpenJDK Runtime Environment
JVM: OpenJDK 64-Bit Server VM
Java Version: 11.0.7+10-post-Debian-3deb10u1
Operating System: Linux
OS Version: 4.19.0-9-amd64
Default Encoding: UTF-8
Language: en
Country: US
--></g></svg>