<?xml version="1.0" encoding="UTF-8" standalone="no"?><svg xmlns="http://www.w3.org/2000/svg" xmlns:xlink="http://www.w3.org/1999/xlink" contentScriptType="application/ecmascript" contentStyleType="text/css" height="736px" preserveAspectRatio="none" style="width:349px;height:736px;" version="1.1" viewBox="0 0 349 736" width="349px" zoomAndPan="magnify"><defs><filter height="300%" id="flstltsfthf1o" width="300%" x="-1" y="-1"><feGaussianBlur result="blurOut" stdDeviation="2.0"/><feColorMatrix in="blurOut" result="blurOut2" type="matrix" values="0 0 0 0 0 0 0 0 0 0 0 0 0 0 0 0 0 0 .4 0"/><feOffset dx="4.0" dy="4.0" in="blurOut2" result="blurOut3"/><feBlend in="SourceGraphic" in2="blurOut3" mode="normal"/></filter></defs><g><rect fill="#FEFECE" filter="url(#flstltsfthf1o)" height="40" rx="12.5" ry="12.5" style="stroke: #A80036; stroke-width: 1.5;" width="129" x="124.5" y="109"/><text fill="#000000" font-family="sans-serif" font-size="14" lengthAdjust="spacingAndGlyphs" textLength="119" x="129.5" y="133.8467">Tic-tac-toe Board</text><rect fill="#FEFECE" filter="url(#flstltsfthf1o)" height="40" rx="12.5" ry="12.5" style="stroke: #A80036; stroke-width: 1.5;" width="85" x="59.5" y="229.5"/><text fill="#000000" font-family="sans-serif" font-size="14" lengthAdjust="spacingAndGlyphs" textLength="75" x="64.5" y="254.3467">Main Menu</text><rect fill="#FEFECE" filter="url(#flstltsfthf1o)" height="40" rx="12.5" ry="12.5" style="stroke: #A80036; stroke-width: 1.5;" width="98" x="126" y="350"/><text fill="#000000" font-family="sans-serif" font-size="14" lengthAdjust="spacingAndGlyphs" textLength="88" x="131" y="374.8467">Single-player</text><rect fill="#FEFECE" filter="url(#flstltsfthf1o)" height="40" rx="12.5" ry="12.5" style="stroke: #A80036; stroke-width: 1.5;" width="78" x="136" y="467"/><text fill="#000000" font-family="sans-serif" font-size="14" lengthAdjust="spacingAndGlyphs" textLength="68" x="141" y="491.8467">Speedrun</text><rect fill="#FEFECE" filter="url(#flstltsfthf1o)" height="40" rx="12.5" ry="12.5" style="stroke: #A80036; stroke-width: 1.5;" width="123" x="100.5" y="584"/><text fill="#000000" font-family="sans-serif" font-size="14" lengthAdjust="spacingAndGlyphs" textLength="113" x="105.5" y="608.8467">Speedrun Board</text><rect fill="#FEFECE" filter="url(#flstltsfthf1o)" height="40" rx="12.5" ry="12.5" style="stroke: #A80036; stroke-width: 1.5;" width="119" x="168.5" y="685"/><text fill="#000000" font-family="sans-serif" font-size="14" lengthAdjust="spacingAndGlyphs" textLength="109" x="173.5" y="709.8467">New Best Time!</text><rect fill="#FEFECE" filter="url(#flstltsfthf1o)" height="40" rx="12.5" ry="12.5" style="stroke: #A80036; stroke-width: 1.5;" width="64" x="157" y="8"/><text fill="#000000" font-family="sans-serif" font-size="14" lengthAdjust="spacingAndGlyphs" textLength="54" x="162" y="32.8467">Loading</text><rect fill="#FEFECE" filter="url(#flstltsfthf1o)" height="40" rx="12.5" ry="12.5" style="stroke: #A80036; stroke-width: 1.5;" width="50" x="6" y="350"/><text fill="#000000" font-family="sans-serif" font-size="14" lengthAdjust="spacingAndGlyphs" textLength="31" x="15.5" y="374.8467">Help</text><!--link Loading to game_board--><path d="M189,48.4389 C189,64.4236 189,86.7261 189,103.8135 " fill="none" id="Loading-game_board" style="stroke: #A80036; stroke-width: 1.0;"/><polygon fill="#A80036" points="189,108.9362,193,99.9362,189,103.9362,185,99.9362,189,108.9362" style="stroke: #A80036; stroke-width: 1.0;"/><!--link game_board to main_menu--><path d="M124.3264,141.5185 C103.7723,148.8804 83.2247,160.5432 71,179 C61.4987,193.3451 69.3832,211.0829 79.5752,225.1775 " fill="none" id="game_board-main_menu" style="stroke: #A80036; stroke-width: 1.0;"/><polygon fill="#A80036" points="82.7957,229.427,80.5477,219.8381,79.7757,225.442,74.1718,224.6701,82.7957,229.427" style="stroke: #A80036; stroke-width: 1.0;"/><text fill="#000000" font-family="sans-serif" font-size="13" lengthAdjust="spacingAndGlyphs" textLength="73" x="72" y="192.0669">Menu / ESC</text><!--link main_menu to game_board--><path d="M121.722,229.4995 C130.8272,219.785 141.4813,207.7031 150,196 C159.735,182.6258 169.1119,166.6502 176.2305,153.6538 " fill="none" id="main_menu-game_board" style="stroke: #A80036; stroke-width: 1.0;"/><polygon fill="#A80036" points="178.7475,149.0108,170.9417,155.0166,176.3645,153.4064,177.9747,158.8293,178.7475,149.0108" style="stroke: #A80036; stroke-width: 1.0;"/><text fill="#000000" font-family="sans-serif" font-size="13" lengthAdjust="spacingAndGlyphs" textLength="69" x="162" y="192.0669">Multiplayer</text><!--link main_menu to singleplayer--><path d="M115.1034,269.7073 C121.4985,279.6728 129.2496,291.9063 136,303 C144.4742,316.9267 153.6601,332.6737 160.9872,345.4008 " fill="none" id="main_menu-singleplayer" style="stroke: #A80036; stroke-width: 1.0;"/><polygon fill="#A80036" points="163.5978,349.9441,162.582,340.1478,161.1067,345.6089,155.6456,344.1336,163.5978,349.9441" style="stroke: #A80036; stroke-width: 1.0;"/><text fill="#000000" font-family="sans-serif" font-size="13" lengthAdjust="spacingAndGlyphs" textLength="83" x="147" y="316.0669">Single-player</text><!--link singleplayer to main_menu--><path d="M125.8875,349.9499 C113.6235,342.4539 101.987,332.6062 95,320 C87.4061,306.2988 89.1007,288.7812 92.7212,274.6356 " fill="none" id="singleplayer-main_menu" style="stroke: #A80036; stroke-width: 1.0;"/><polygon fill="#A80036" points="94.1286,269.59,87.8575,277.1843,92.7852,274.4061,95.5633,279.3338,94.1286,269.59" style="stroke: #A80036; stroke-width: 1.0;"/><text fill="#000000" font-family="sans-serif" font-size="13" lengthAdjust="spacingAndGlyphs" textLength="31" x="96" y="316.0669">Back</text><!--link main_menu to Help--><path d="M60.309,269.6726 C47.5707,278.0829 35.0694,289.1655 28,303 C21.4985,315.7231 21.9192,331.6432 24.1197,344.772 " fill="none" id="main_menu-Help" style="stroke: #A80036; stroke-width: 1.0;"/><polygon fill="#A80036" points="25.078,349.8387,27.3356,340.2521,24.1487,344.9258,19.475,341.7389,25.078,349.8387" style="stroke: #A80036; stroke-width: 1.0;"/><text fill="#000000" font-family="sans-serif" font-size="13" lengthAdjust="spacingAndGlyphs" textLength="29" x="29" y="316.0669">Help</text><!--link singleplayer to game_board--><path d="M212.0756,349.8034 C222.7395,341.9987 233.0794,332.0155 239,320 C327.6898,140.0098 252.3498,208.4026 240,179 C235.8322,169.0773 228.6279,160.1355 220.9253,152.65 " fill="none" id="singleplayer-game_board" style="stroke: #A80036; stroke-width: 1.0;"/><polygon fill="#A80036" points="217.115,149.0944,220.966,158.1592,220.7706,152.5057,226.424,152.3103,217.115,149.0944" style="stroke: #A80036; stroke-width: 1.0;"/><text fill="#000000" font-family="sans-serif" font-size="13" lengthAdjust="spacingAndGlyphs" textLength="30" x="290.5" y="239.0669">Easy</text><text fill="#000000" font-family="sans-serif" font-size="13" lengthAdjust="spacingAndGlyphs" textLength="51" x="282" y="254.1997">Medium</text><text fill="#000000" font-family="sans-serif" font-size="13" lengthAdjust="spacingAndGlyphs" textLength="31" x="294" y="269.3325">Hard</text><!--link singleplayer to speedrun--><path d="M144.1459,390.1679 C134.5647,398.192 125.1684,408.3166 120,420 C112.8768,436.1024 123.7529,451.481 137.6637,463.4339 " fill="none" id="singleplayer-speedrun" style="stroke: #A80036; stroke-width: 1.0;"/><polygon fill="#A80036" points="141.6553,466.7122,137.2391,457.909,137.7914,463.5388,132.1616,464.0911,141.6553,466.7122" style="stroke: #A80036; stroke-width: 1.0;"/><text fill="#000000" font-family="sans-serif" font-size="13" lengthAdjust="spacingAndGlyphs" textLength="62" x="121" y="433.0669">Speedrun</text><!--link speedrun to singleplayer--><path d="M182.3272,466.8794 C186.3028,453.6312 190.029,435.8668 188,420 C186.9647,411.904 185.0228,403.2458 182.9496,395.4482 " fill="none" id="speedrun-singleplayer" style="stroke: #A80036; stroke-width: 1.0;"/><polygon fill="#A80036" points="181.5029,390.2048,180.0407,399.9445,182.8328,395.0247,187.7526,397.8167,181.5029,390.2048" style="stroke: #A80036; stroke-width: 1.0;"/><text fill="#000000" font-family="sans-serif" font-size="13" lengthAdjust="spacingAndGlyphs" textLength="31" x="190" y="433.0669">Back</text><!--link speedrun to speedrun_game_board--><path d="M135.7863,502.643 C121.2021,510.6093 106.2143,521.8719 98,537 C89.0133,553.5507 101.6325,568.9765 117.9749,580.8445 " fill="none" id="speedrun-speedrun_game_board" style="stroke: #A80036; stroke-width: 1.0;"/><polygon fill="#A80036" points="122.1991,583.7836,117.096,575.3599,118.0948,580.9279,112.5269,581.9268,122.1991,583.7836" style="stroke: #A80036; stroke-width: 1.0;"/><text fill="#000000" font-family="sans-serif" font-size="13" lengthAdjust="spacingAndGlyphs" textLength="32" x="99" y="550.0669">Start</text><!--link speedrun_game_board to speedrun--><path d="M164.2491,583.7579 C166.4493,563.9565 169.8067,533.7395 172.1834,512.3493 " fill="none" id="speedrun_game_board-speedrun" style="stroke: #A80036; stroke-width: 1.0;"/><polygon fill="#A80036" points="172.7652,507.113,167.7958,515.6162,172.2131,512.0824,175.7469,516.4997,172.7652,507.113" style="stroke: #A80036; stroke-width: 1.0;"/><text fill="#000000" font-family="sans-serif" font-size="13" lengthAdjust="spacingAndGlyphs" textLength="94" x="171" y="550.0669">Non Best Time</text><!--link speedrun_game_board to speedrun_best_time--><path d="M175.3561,624.4389 C185.9816,640.6992 200.8793,663.4971 212.1159,680.6926 " fill="none" id="speedrun_game_board-speedrun_best_time" style="stroke: #A80036; stroke-width: 1.0;"/><polygon fill="#A80036" points="214.889,684.9362,213.3142,675.2141,212.1539,680.7506,206.6173,679.5903,214.889,684.9362" style="stroke: #A80036; stroke-width: 1.0;"/><!--link speedrun_best_time to speedrun--><path d="M242.6175,684.9269 C264.7355,651.8729 301.1891,584.8846 272,537 C260.3145,517.8299 238.6632,505.6938 218.7762,498.1872 " fill="none" id="speedrun_best_time-speedrun" style="stroke: #A80036; stroke-width: 1.0;"/><polygon fill="#A80036" points="214.0333,496.4698,221.1336,503.2952,218.7346,498.1722,223.8575,495.7731,214.0333,496.4698" style="stroke: #A80036; stroke-width: 1.0;"/><text fill="#000000" font-family="sans-serif" font-size="13" lengthAdjust="spacingAndGlyphs" textLength="35" x="283" y="608.5669">Close</text><!--
@startuml
hide empty description

state "Tic-tac-toe Board" as game_board
state "Main Menu" as main_menu
state "Single-player" as singleplayer
state "Speedrun" as speedrun
state "Speedrun Board" as speedrun_game_board
state "New Best Time!" as speedrun_best_time

Loading - -> game_board
game_board - -> main_menu : Menu / ESC

main_menu - -> game_board : Multiplayer
main_menu - -> singleplayer : Single-player
main_menu - -> Help : Help

singleplayer - -> game_board : Easy \n Medium \n Hard
singleplayer - -> speedrun : Speedrun
singleplayer - -> main_menu : Back

speedrun - -> singleplayer : Back
speedrun - -> speedrun_game_board : Start
speedrun_game_board - -> speedrun : Non Best Time
speedrun_game_board - -> speedrun_best_time
speedrun_best_time - -> speedrun : Close

@enduml

PlantUML version 1.2018.13(Mon Nov 26 09:11:51 PST 2018)
(GPL source distribution)
Java Runtime: OpenJDK Runtime Environment
JVM: OpenJDK 64-Bit Server VM
Java Version: 11.0.7+10-post-Debian-3deb10u1
Operating System: Linux
OS Version: 4.19.0-9-amd64
Default Encoding: UTF-8
Language: en
Country: US
--></g></svg>