<?xml version="1.0" encoding="UTF-8" standalone="no"?><svg xmlns="http://www.w3.org/2000/svg" xmlns:xlink="http://www.w3.org/1999/xlink" contentScriptType="application/ecmascript" contentStyleType="text/css" height="411px" preserveAspectRatio="none" style="width:528px;height:411px;" version="1.1" viewBox="0 0 528 411" width="528px" zoomAndPan="magnify"><defs><filter height="300%" id="f13edbtykwmo2t" width="300%" x="-1" y="-1"><feGaussianBlur result="blurOut" stdDeviation="2.0"/><feColorMatrix in="blurOut" result="blurOut2" type="matrix" values="0 0 0 0 0 0 0 0 0 0 0 0 0 0 0 0 0 0 .4 0"/><feOffset dx="4.0" dy="4.0" in="blurOut2" result="blurOut3"/><feBlend in="SourceGraphic" in2="blurOut3" mode="normal"/></filter></defs><g><polygon fill="#FFFFFF" filter="url(#f13edbtykwmo2t)" points="71.5893,8,200.5893,8,207.5893,30.2969,214.5893,30.2969,214.5893,60.5938,71.5893,60.5938,71.5893,8" style="stroke: #000000; stroke-width: 1.5;"/><line style="stroke: #000000; stroke-width: 1.5;" x1="71.5893" x2="207.5893" y1="30.2969" y2="30.2969"/><text fill="#000000" font-family="sans-serif" font-size="14" font-weight="bold" lengthAdjust="spacingAndGlyphs" textLength="123" x="75.5893" y="22.9951">&lt;fossxo crate&gt;</text><polygon fill="#FFFFFF" filter="url(#f13edbtykwmo2t)" points="170.5893,121,225.5893,121,232.5893,143.2969,239.5893,143.2969,239.5893,173.5938,170.5893,173.5938,170.5893,121" style="stroke: #000000; stroke-width: 1.5;"/><line style="stroke: #000000; stroke-width: 1.5;" x1="170.5893" x2="232.5893" y1="143.2969" y2="143.2969"/><text fill="#000000" font-family="sans-serif" font-size="14" font-weight="bold" lengthAdjust="spacingAndGlyphs" textLength="49" x="174.5893" y="135.9951">states</text><polygon fill="#FFFFFF" filter="url(#f13edbtykwmo2t)" points="44.0893,121,116.0893,121,123.0893,143.2969,130.0893,143.2969,130.0893,173.5938,44.0893,173.5938,44.0893,121" style="stroke: #000000; stroke-width: 1.5;"/><line style="stroke: #000000; stroke-width: 1.5;" x1="44.0893" x2="123.0893" y1="143.2969" y2="143.2969"/><text fill="#000000" font-family="sans-serif" font-size="14" font-weight="bold" lengthAdjust="spacingAndGlyphs" textLength="66" x="48.0893" y="135.9951">systems</text><polygon fill="#FFFFFF" filter="url(#f13edbtykwmo2t)" points="277.5893,234,328.5893,234,335.5893,256.2969,342.5893,256.2969,342.5893,286.5938,277.5893,286.5938,277.5893,234" style="stroke: #000000; stroke-width: 1.5;"/><line style="stroke: #000000; stroke-width: 1.5;" x1="277.5893" x2="335.5893" y1="256.2969" y2="256.2969"/><text fill="#000000" font-family="sans-serif" font-size="14" font-weight="bold" lengthAdjust="spacingAndGlyphs" textLength="45" x="281.5893" y="248.9951">file_io</text><polygon fill="#FFFFFF" filter="url(#f13edbtykwmo2t)" points="168.0893,234,228.0893,234,235.0893,256.2969,242.0893,256.2969,242.0893,286.5938,168.0893,286.5938,168.0893,234" style="stroke: #000000; stroke-width: 1.5;"/><line style="stroke: #000000; stroke-width: 1.5;" x1="168.0893" x2="235.0893" y1="256.2969" y2="256.2969"/><text fill="#000000" font-family="sans-serif" font-size="14" font-weight="bold" lengthAdjust="spacingAndGlyphs" textLength="54" x="172.0893" y="248.9951">events</text><polygon fill="#FFFFFF" filter="url(#f13edbtykwmo2t)" points="377.5893,234,492.5893,234,499.5893,256.2969,506.5893,256.2969,506.5893,286.5938,377.5893,286.5938,377.5893,234" style="stroke: #000000; stroke-width: 1.5;"/><line style="stroke: #000000; stroke-width: 1.5;" x1="377.5893" x2="499.5893" y1="256.2969" y2="256.2969"/><text fill="#000000" font-family="sans-serif" font-size="14" font-weight="bold" lengthAdjust="spacingAndGlyphs" textLength="109" x="381.5893" y="248.9951">environments</text><polygon fill="#FFFFFF" filter="url(#f13edbtykwmo2t)" points="151.0893,347,255.0893,347,262.0893,369.2969,269.0893,369.2969,269.0893,399.5938,151.0893,399.5938,151.0893,347" style="stroke: #000000; stroke-width: 1.5;"/><line style="stroke: #000000; stroke-width: 1.5;" x1="151.0893" x2="262.0893" y1="369.2969" y2="369.2969"/><text fill="#000000" font-family="sans-serif" font-size="14" font-weight="bold" lengthAdjust="spacingAndGlyphs" textLength="98" x="155.0893" y="361.9951">components</text><polygon fill="#FFFFFF" filter="url(#f13edbtykwmo2t)" points="31.5893,234,118.5893,234,125.5893,256.2969,132.5893,256.2969,132.5893,286.5938,31.5893,286.5938,31.5893,234" style="stroke: #000000; stroke-width: 1.5;"/><line style="stroke: #000000; stroke-width: 1.5;" x1="31.5893" x2="125.5893" y1="256.2969" y2="256.2969"/><text fill="#000000" font-family="sans-serif" font-size="14" font-weight="bold" lengthAdjust="spacingAndGlyphs" textLength="81" x="35.5893" y="248.9951">resources</text><!--link <fossxo crate> to states--><path d="M160.3951,66.0411 C169.8728,83.315 181.4879,104.4845 190.5017,120.9128 " fill="none" id="&lt;fossxo crate&gt;-states" style="stroke: #A80036; stroke-width: 1.0;"/><polygon fill="#A80036" points="157.7825,61.2794,158.6049,71.0939,160.1876,65.6629,165.6185,67.2457,157.7825,61.2794" style="stroke: #A80036; stroke-width: 1.0;"/><!--link <fossxo crate> to systems--><path d="M127.4584,66.0411 C118.8978,83.315 108.4068,104.4845 100.2653,120.9128 " fill="none" id="&lt;fossxo crate&gt;-systems" style="stroke: #A80036; stroke-width: 1.0;"/><polygon fill="#A80036" points="129.8181,61.2794,122.2376,67.5672,127.5978,65.7594,129.4056,71.1196,129.8181,61.2794" style="stroke: #A80036; stroke-width: 1.0;"/><!--link states to file_io--><path d="M233.5775,178.1587 C249.7746,195.5899 269.8582,217.2037 285.3844,233.9128 " fill="none" id="states-file_io" style="stroke: #A80036; stroke-width: 1.0;"/><polygon fill="#A80036" points="229.9729,174.2794,233.169,183.5952,233.3764,177.9422,239.0295,178.1496,229.9729,174.2794" style="stroke: #A80036; stroke-width: 1.0;"/><!--link states to environments--><path d="M244.4178,166.2516 C283.107,184.6983 342.5499,213.0402 386.1505,233.8288 " fill="none" id="states-environments" style="stroke: #A80036; stroke-width: 1.0;"/><polygon fill="#A80036" points="239.805,164.0522,246.2074,171.5361,244.3183,166.204,249.6504,164.3149,239.805,164.0522" style="stroke: #A80036; stroke-width: 1.0;"/><!--link states to events--><path d="M205.0893,179.4849 C205.0893,196.6766 205.0893,217.6249 205.0893,233.9128 " fill="none" id="states-events" style="stroke: #A80036; stroke-width: 1.0;"/><polygon fill="#A80036" points="205.0893,174.2794,201.0893,183.2794,205.0893,179.2794,209.0893,183.2794,205.0893,174.2794" style="stroke: #A80036; stroke-width: 1.0;"/><!--link states to resources--><path d="M172.1948,177.7201 C153.1395,195.2263 129.37,217.0633 111.0294,233.9128 " fill="none" id="states-resources" style="stroke: #A80036; stroke-width: 1.0;"/><polygon fill="#A80036" points="175.9401,174.2794,166.6062,177.4225,172.258,177.6621,172.0185,183.3138,175.9401,174.2794" style="stroke: #A80036; stroke-width: 1.0;"/><!--link systems to components--><path d="M52.2428,177.8467 C23.403,206.7509 -9.3355,251.0574 14.0893,287 C44.1456,333.1177 104.9581,354.8226 150.9193,364.9281 " fill="none" id="systems-components" style="stroke: #A80036; stroke-width: 1.0;"/><polygon fill="#A80036" points="56.0983,174.0488,46.8796,177.5151,52.5363,177.5577,52.4938,183.2144,56.0983,174.0488" style="stroke: #A80036; stroke-width: 1.0;"/><!--link systems to resources--><path d="M85.6741,179.4849 C84.9134,196.6766 83.9865,217.6249 83.2658,233.9128 " fill="none" id="systems-resources" style="stroke: #A80036; stroke-width: 1.0;"/><polygon fill="#A80036" points="85.9044,174.2794,81.5103,183.0937,85.6833,179.2745,89.5024,183.4475,85.9044,174.2794" style="stroke: #A80036; stroke-width: 1.0;"/><!--link systems to events--><path d="M119.1046,178.1587 C137.3071,195.5899 159.8772,217.2037 177.3257,233.9128 " fill="none" id="systems-events" style="stroke: #A80036; stroke-width: 1.0;"/><polygon fill="#A80036" points="115.0537,174.2794,118.7873,183.3931,118.6649,177.7376,124.3204,177.6152,115.0537,174.2794" style="stroke: #A80036; stroke-width: 1.0;"/><!--link environments to components--><path d="M382.5734,289.4883 C346.2702,307.1705 300.2029,329.6085 264.8107,346.8469 " fill="none" id="environments-components" style="stroke: #A80036; stroke-width: 1.0;"/><polygon fill="#A80036" points="387.4024,287.1363,377.5596,287.4812,382.9072,289.3257,381.0627,294.6734,387.4024,287.1363" style="stroke: #A80036; stroke-width: 1.0;"/><!--
@startuml



hide empty members

package "<fossxo crate>" { }
package states { }
package systems { }
package file_io { }
package events { }
package environments { }
package components { }
package resources { }

"<fossxo crate>" <- - states
"<fossxo crate>" <- - systems
states <- - file_io
states <- - environments
states <- - events
states <- - resources

systems <- - components
systems <- - resources
systems <- - events
environments <- - components

@enduml

PlantUML version 1.2018.13(Mon Nov 26 09:11:51 PST 2018)
(GPL source distribution)
Java Runtime: OpenJDK Runtime Environment
JVM: OpenJDK 64-Bit Server VM
Java Version: 11.0.7+10-post-Debian-3deb10u1
Operating System: Linux
OS Version: 4.19.0-9-amd64
Default Encoding: UTF-8
Language: en
Country: US
--></g></svg>