<?xml version="1.0" encoding="UTF-8" standalone="no"?><svg xmlns="http://www.w3.org/2000/svg" xmlns:xlink="http://www.w3.org/1999/xlink" contentScriptType="application/ecmascript" contentStyleType="text/css" height="639px" preserveAspectRatio="none" style="width:429px;height:639px;" version="1.1" viewBox="0 0 429 639" width="429px" zoomAndPan="magnify"><defs><filter height="300%" id="fy1s7wsjx87mi" width="300%" x="-1" y="-1"><feGaussianBlur result="blurOut" stdDeviation="2.0"/><feColorMatrix in="blurOut" result="blurOut2" type="matrix" values="0 0 0 0 0 0 0 0 0 0 0 0 0 0 0 0 0 0 .4 0"/><feOffset dx="4.0" dy="4.0" in="blurOut2" result="blurOut3"/><feBlend in="SourceGraphic" in2="blurOut3" mode="normal"/></filter></defs><g><ellipse cx="296.5" cy="18" fill="#000000" filter="url(#fy1s7wsjx87mi)" rx="10" ry="10" style="stroke: none; stroke-width: 1.0;"/><rect fill="#FEFECE" filter="url(#fy1s7wsjx87mi)" height="40" rx="12.5" ry="12.5" style="stroke: #A80036; stroke-width: 1.5;" width="64" x="264.5" y="88"/><text fill="#000000" font-family="sans-serif" font-size="14" lengthAdjust="spacingAndGlyphs" textLength="54" x="269.5" y="112.8467">Loading</text><rect fill="#FEFECE" filter="url(#fy1s7wsjx87mi)" height="40" rx="12.5" ry="12.5" style="stroke: #A80036; stroke-width: 1.5;" width="51" x="271" y="188"/><text fill="#000000" font-family="sans-serif" font-size="14" lengthAdjust="spacingAndGlyphs" textLength="41" x="276" y="212.8467">Game</text><rect fill="#FEFECE" filter="url(#fy1s7wsjx87mi)" height="40" rx="12.5" ry="12.5" style="stroke: #A80036; stroke-width: 1.5;" width="81" x="256" y="288"/><text fill="#000000" font-family="sans-serif" font-size="14" lengthAdjust="spacingAndGlyphs" textLength="71" x="261" y="312.8467">MainMenu</text><rect fill="#FEFECE" filter="url(#fy1s7wsjx87mi)" height="40" rx="12.5" ry="12.5" style="stroke: #A80036; stroke-width: 1.5;" width="132" x="92.5" y="388"/><text fill="#000000" font-family="sans-serif" font-size="14" lengthAdjust="spacingAndGlyphs" textLength="122" x="97.5" y="412.8467">SinglePlayerMenu</text><rect fill="#FEFECE" filter="url(#fy1s7wsjx87mi)" height="40" rx="12.5" ry="12.5" style="stroke: #A80036; stroke-width: 1.5;" width="103" x="260" y="388"/><text fill="#000000" font-family="sans-serif" font-size="14" lengthAdjust="spacingAndGlyphs" textLength="93" x="265" y="412.8467">OptionsMenu</text><ellipse cx="408.5" cy="408" fill="none" filter="url(#fy1s7wsjx87mi)" rx="10" ry="10" style="stroke: #000000; stroke-width: 1.0;"/><ellipse cx="409" cy="408.5" fill="#000000" rx="6" ry="6" style="stroke: none; stroke-width: 1.0;"/><rect fill="#FEFECE" filter="url(#fy1s7wsjx87mi)" height="40" rx="12.5" ry="12.5" style="stroke: #A80036; stroke-width: 1.5;" width="117" x="100" y="488"/><text fill="#000000" font-family="sans-serif" font-size="14" lengthAdjust="spacingAndGlyphs" textLength="107" x="105" y="512.8467">SpeedrunMenu</text><rect fill="#FEFECE" filter="url(#fy1s7wsjx87mi)" height="40" rx="12.5" ry="12.5" style="stroke: #A80036; stroke-width: 1.5;" width="119" x="6" y="588"/><text fill="#000000" font-family="sans-serif" font-size="14" lengthAdjust="spacingAndGlyphs" textLength="109" x="11" y="612.8467">SpeedrunGame</text><rect fill="#FEFECE" filter="url(#fy1s7wsjx87mi)" height="40" rx="12.5" ry="12.5" style="stroke: #A80036; stroke-width: 1.5;" width="183" x="160" y="588"/><text fill="#000000" font-family="sans-serif" font-size="14" lengthAdjust="spacingAndGlyphs" textLength="173" x="165" y="612.8467">SpeedrunBestTimeMenu</text><!--link *start to Loading--><path d="M296.5,28.3241 C296.5,41.463 296.5,64.6088 296.5,82.5795 " fill="none" id="*start-Loading" style="stroke: #A80036; stroke-width: 1.0;"/><polygon fill="#A80036" points="296.5,87.9737,300.5,78.9737,296.5,82.9737,292.5,78.9737,296.5,87.9737" style="stroke: #A80036; stroke-width: 1.0;"/><!--link Loading to Game--><path d="M296.5,128.2365 C296.5,143.9595 296.5,165.8563 296.5,182.7304 " fill="none" id="Loading-Game" style="stroke: #A80036; stroke-width: 1.0;"/><polygon fill="#A80036" points="296.5,187.7936,300.5,178.7936,296.5,182.7936,292.5,178.7936,296.5,187.7936" style="stroke: #A80036; stroke-width: 1.0;"/><!--link Game to MainMenu--><path d="M286.0192,228.2365 C283.2757,243.9595 283.0199,265.8563 285.2519,282.7304 " fill="none" id="Game-MainMenu" style="stroke: #A80036; stroke-width: 1.0;"/><polygon fill="#A80036" points="286.0245,287.7936,288.621,278.2932,285.2702,282.8508,280.7126,279.5,286.0245,287.7936" style="stroke: #A80036; stroke-width: 1.0;"/><!--link MainMenu to Game--><path d="M307.5917,287.7936 C310.5,272.0785 310.7742,250.1824 308.4143,233.3019 " fill="none" id="MainMenu-Game" style="stroke: #A80036; stroke-width: 1.0;"/><polygon fill="#A80036" points="307.5973,228.2365,305.0816,237.7587,308.3936,233.1727,312.9795,236.4846,307.5973,228.2365" style="stroke: #A80036; stroke-width: 1.0;"/><!--link MainMenu to SinglePlayerMenu--><path d="M258.0929,328.2365 C232.8087,344.5017 201.0694,367.3738 179.9801,384.4577 " fill="none" id="MainMenu-SinglePlayerMenu" style="stroke: #A80036; stroke-width: 1.0;"/><polygon fill="#A80036" points="175.9093,387.7936,185.4058,385.1827,179.7766,384.6243,180.335,378.9951,175.9093,387.7936" style="stroke: #A80036; stroke-width: 1.0;"/><!--link SinglePlayerMenu to MainMenu--><path d="M197.209,387.9645 C222.6914,371.7007 254.5848,348.735 275.6149,331.5852 " fill="none" id="SinglePlayerMenu-MainMenu" style="stroke: #A80036; stroke-width: 1.0;"/><polygon fill="#A80036" points="279.6709,328.2365,270.184,330.8821,275.8152,331.4199,275.2774,337.0511,279.6709,328.2365" style="stroke: #A80036; stroke-width: 1.0;"/><!--link MainMenu to OptionsMenu--><path d="M289.0547,328.2365 C288.6696,343.9595 291.6983,365.8563 296.4615,382.7304 " fill="none" id="MainMenu-OptionsMenu" style="stroke: #A80036; stroke-width: 1.0;"/><polygon fill="#A80036" points="297.9935,387.7936,299.2154,378.0208,296.5454,383.0079,291.5583,380.3379,297.9935,387.7936" style="stroke: #A80036; stroke-width: 1.0;"/><!--link OptionsMenu to MainMenu--><path d="M319.5608,387.7936 C320.1118,372.0785 317.1016,350.1824 312.2095,333.3019 " fill="none" id="OptionsMenu-MainMenu" style="stroke: #A80036; stroke-width: 1.0;"/><polygon fill="#A80036" points="310.6328,328.2365,309.4887,338.0187,312.119,333.0105,317.1271,335.6408,310.6328,328.2365" style="stroke: #A80036; stroke-width: 1.0;"/><!--link MainMenu to *end--><path d="M319.1649,328.2365 C342.816,349.3536 378.94,381.6072 397.1565,397.8719 " fill="none" id="MainMenu-*end" style="stroke: #A80036; stroke-width: 1.0;"/><polygon fill="#A80036" points="400.9693,401.2761,396.92,392.2982,397.2396,397.946,391.5918,398.2657,400.9693,401.2761" style="stroke: #A80036; stroke-width: 1.0;"/><!--link SinglePlayerMenu to Game--><path d="M171.5677,387.8791 C187.2145,363.9093 214.3404,322.7403 238.5,288 C251.5711,269.2043 266.7761,248.2647 278.3379,232.5242 " fill="none" id="SinglePlayerMenu-Game" style="stroke: #A80036; stroke-width: 1.0;"/><polygon fill="#A80036" points="281.4976,228.2285,272.9428,233.1085,278.5351,232.2563,279.3873,237.8486,281.4976,228.2285" style="stroke: #A80036; stroke-width: 1.0;"/><!--link SinglePlayerMenu to SpeedrunMenu--><path d="M148.0192,428.2365 C145.2757,443.9595 145.0199,465.8563 147.2519,482.7304 " fill="none" id="SinglePlayerMenu-SpeedrunMenu" style="stroke: #A80036; stroke-width: 1.0;"/><polygon fill="#A80036" points="148.0245,487.7936,150.621,478.2932,147.2702,482.8508,142.7126,479.5,148.0245,487.7936" style="stroke: #A80036; stroke-width: 1.0;"/><!--link SpeedrunMenu to SinglePlayerMenu--><path d="M169.5917,487.7936 C172.5,472.0785 172.7742,450.1824 170.4143,433.3019 " fill="none" id="SpeedrunMenu-SinglePlayerMenu" style="stroke: #A80036; stroke-width: 1.0;"/><polygon fill="#A80036" points="169.5973,428.2365,167.0816,437.7587,170.3936,433.1727,174.9795,436.4846,169.5973,428.2365" style="stroke: #A80036; stroke-width: 1.0;"/><!--link SpeedrunMenu to SpeedrunGame--><path d="M129.1993,528.2365 C111.5339,544.2306 90.5015,566.6132 77.0628,583.5987 " fill="none" id="SpeedrunMenu-SpeedrunGame" style="stroke: #A80036; stroke-width: 1.0;"/><polygon fill="#A80036" points="73.8164,587.7936,82.488,583.1242,76.8766,583.8394,76.1614,578.228,73.8164,587.7936" style="stroke: #A80036; stroke-width: 1.0;"/><!--link SpeedrunGame to SpeedrunMenu--><path d="M95.3837,587.7936 C113.2092,571.8075 134.2571,549.4255 147.5669,532.4333 " fill="none" id="SpeedrunGame-SpeedrunMenu" style="stroke: #A80036; stroke-width: 1.0;"/><polygon fill="#A80036" points="150.7774,528.2365,142.1321,532.9544,147.7394,532.2077,148.4861,537.8151,150.7774,528.2365" style="stroke: #A80036; stroke-width: 1.0;"/><!--link SpeedrunMenu to SpeedrunBestTimeMenu--><path d="M166.8392,528.2365 C179.0252,544.3662 199.8718,566.993 218.1374,584.0294 " fill="none" id="SpeedrunMenu-SpeedrunBestTimeMenu" style="stroke: #A80036; stroke-width: 1.0;"/><polygon fill="#A80036" points="222.2325,587.7936,218.3134,578.7581,218.5514,584.4099,212.8995,584.6478,222.2325,587.7936" style="stroke: #A80036; stroke-width: 1.0;"/><!--link SpeedrunBestTimeMenu to SpeedrunMenu--><path d="M243.7998,587.7936 C231.7902,571.672 210.9592,549.0457 192.5481,532.0024 " fill="none" id="SpeedrunBestTimeMenu-SpeedrunMenu" style="stroke: #A80036; stroke-width: 1.0;"/><polygon fill="#A80036" points="188.4172,528.2365,192.3733,537.2559,192.1122,531.6051,197.763,531.3439,188.4172,528.2365" style="stroke: #A80036; stroke-width: 1.0;"/><!--
@startuml
hide empty description

[*] - -> Loading
Loading - -> Game
Game - -> MainMenu

MainMenu - -> Game
MainMenu - -> SinglePlayerMenu
MainMenu - -> OptionsMenu
MainMenu - -> [*]

OptionsMenu - -> MainMenu

SinglePlayerMenu - -> Game
SinglePlayerMenu - -> SpeedrunMenu
SinglePlayerMenu - -> MainMenu

SpeedrunMenu - -> SinglePlayerMenu
SpeedrunMenu - -> SpeedrunGame
SpeedrunGame - -> SpeedrunMenu
SpeedrunMenu - -> SpeedrunBestTimeMenu
SpeedrunBestTimeMenu - -> SpeedrunMenu

@enduml

PlantUML version 1.2018.13(Mon Nov 26 09:11:51 PST 2018)
(GPL source distribution)
Java Runtime: OpenJDK Runtime Environment
JVM: OpenJDK 64-Bit Server VM
Java Version: 11.0.7+10-post-Debian-3deb10u1
Operating System: Linux
OS Version: 4.19.0-9-amd64
Default Encoding: UTF-8
Language: en
Country: US
--></g></svg>