<?xml version="1.0" encoding="UTF-8" standalone="no"?><svg xmlns="http://www.w3.org/2000/svg" xmlns:xlink="http://www.w3.org/1999/xlink" contentScriptType="application/ecmascript" contentStyleType="text/css" height="105px" preserveAspectRatio="none" style="width:226px;height:105px;" version="1.1" viewBox="0 0 226 105" width="226px" zoomAndPan="magnify"><defs><filter height="300%" id="f1u8cd1e7ihuov" width="300%" x="-1" y="-1"><feGaussianBlur result="blurOut" stdDeviation="2.0"/><feColorMatrix in="blurOut" result="blurOut2" type="matrix" values="0 0 0 0 0 0 0 0 0 0 0 0 0 0 0 0 0 0 .4 0"/><feOffset dx="4.0" dy="4.0" in="blurOut2" result="blurOut3"/><feBlend in="SourceGraphic" in2="blurOut3" mode="normal"/></filter></defs><g><!--class Game--><rect fill="#FEFECE" filter="url(#f1u8cd1e7ihuov)" height="86.4141" id="Game" style="stroke: #A80036; stroke-width: 1.5;" width="209" x="6" y="8"/><ellipse cx="88.25" cy="24" fill="#FF6AD3" rx="11" ry="11" style="stroke: #A80036; stroke-width: 1.0;"/><path d="M87.7344,24.5625 Q85.875,23.8594 85.2188,23.0938 Q84.5781,22.3125 84.5781,21 Q84.5781,19.3125 85.6563,18.3438 Q86.7344,17.375 88.6094,17.375 Q89.4688,17.375 90.3125,17.5781 Q91.1719,17.7656 92.0156,18.1563 L92.0156,20.5469 Q91.2344,19.9844 90.4063,19.7031 Q89.5938,19.4063 88.7969,19.4063 Q87.9219,19.4063 87.4375,19.7656 Q86.9688,20.125 86.9688,20.7813 Q86.9688,21.2969 87.3125,21.6406 Q87.6563,21.9688 88.75,22.375 L89.8125,22.7813 Q91.2969,23.3281 92,24.2344 Q92.7188,25.1406 92.7188,26.5156 Q92.7188,28.3906 91.6094,29.3125 Q90.5,30.2344 88.25,30.2344 Q87.3281,30.2344 86.4063,30.0156 Q85.4844,29.7969 84.625,29.375 L84.625,26.8438 Q85.5938,27.5313 86.5156,27.875 Q87.4375,28.2188 88.3281,28.2188 Q89.2344,28.2188 89.7344,27.8125 Q90.2344,27.3906 90.2344,26.6563 Q90.2344,26.0938 89.8906,25.6875 Q89.5625,25.2656 88.9375,25.0156 L87.7344,24.5625 Z "/><text fill="#000000" font-family="sans-serif" font-size="12" lengthAdjust="spacingAndGlyphs" textLength="36" x="108.75" y="28.1543">Game</text><line style="stroke: #A80036; stroke-width: 1.5;" x1="7" x2="214" y1="40" y2="40"/><ellipse cx="17" cy="51.9023" fill="none" rx="3" ry="3" style="stroke: #038048; stroke-width: 1.0;"/><text fill="#000000" font-family="sans-serif" font-size="11" lengthAdjust="spacingAndGlyphs" textLength="94" x="26" y="54.2104">game: ttt::Game</text><ellipse cx="17" cy="64.707" fill="none" rx="3" ry="3" style="stroke: #038048; stroke-width: 1.0;"/><text fill="#000000" font-family="sans-serif" font-size="11" lengthAdjust="spacingAndGlyphs" textLength="89" x="26" y="67.0151">last_move_time</text><line style="stroke: #A80036; stroke-width: 1.5;" x1="7" x2="214" y1="73.6094" y2="73.6094"/><ellipse cx="17" cy="85.5117" fill="#84BE84" rx="3" ry="3" style="stroke: #038048; stroke-width: 1.0;"/><text fill="#000000" font-family="sans-serif" font-size="11" lengthAdjust="spacingAndGlyphs" textLength="183" x="26" y="87.8198">is_players_move(player) -&gt; bool</text><!--
@startuml



hide empty members

class Game << (S,#ff6ad3) >> {
    + game: ttt::Game
    + last_move_time
    + is_players_move(player) -> bool
}

@enduml

PlantUML version 1.2018.13(Mon Nov 26 09:11:51 PST 2018)
(GPL source distribution)
Java Runtime: OpenJDK Runtime Environment
JVM: OpenJDK 64-Bit Server VM
Java Version: 11.0.7+10-post-Debian-3deb10u1
Operating System: Linux
OS Version: 4.19.0-9-amd64
Default Encoding: UTF-8
Language: en
Country: US
--></g></svg>